<?xml version="1.0" standalone="no"?>
<!DOCTYPE svg PUBLIC "-//W3C//DTD SVG 20010904//EN"
 "http://www.w3.org/TR/2001/REC-SVG-20010904/DTD/svg10.dtd">
<svg version="1.0" xmlns="http://www.w3.org/2000/svg"
 width="676.000000pt" height="676.000000pt" viewBox="0 0 676.000000 676.000000"
 preserveAspectRatio="xMidYMid meet">
<metadata>
Created by potrace 1.14, written by Peter Selinger 2001-2017
</metadata>
<g transform="translate(0.000000,676.000000) scale(0.100000,-0.100000)"
fill="#000000" stroke="none">
<path d="M6335 6051 c3 -6 -2 -14 -12 -19 -15 -9 -15 -12 -3 -28 9 -11 10 -15
2 -10 -8 5 -11 1 -9 -14 3 -20 27 -52 27 -35 0 5 6 1 13 -10 11 -14 16 -15 22
-5 5 9 4 11 -3 6 -7 -4 -12 -5 -12 -2 0 3 12 12 28 20 15 8 21 15 13 16 -11 0
-11 3 0 17 16 18 16 18 -6 39 -8 9 -13 20 -10 25 4 5 -8 9 -25 9 -17 0 -29 -4
-25 -9z"/>
<path d="M6230 5909 c0 -6 -4 -7 -10 -4 -5 3 -10 0 -10 -9 0 -8 -6 -17 -12
-19 -10 -4 -9 -6 1 -6 11 -1 11 -4 1 -16 -18 -22 11 -61 49 -67 16 -2 28 -1
25 4 -3 4 0 8 6 8 7 0 9 7 6 16 -4 9 -2 13 5 8 7 -4 10 -1 7 7 -3 8 -2 21 3
30 6 11 2 22 -10 33 -22 20 -61 29 -61 15z"/>
<path d="M1825 5864 c-22 -20 -25 -27 -15 -39 10 -12 10 -15 -1 -15 -9 -1 -7
-6 6 -16 11 -8 25 -12 32 -10 7 3 13 0 13 -7 1 -7 6 -5 14 5 7 10 16 14 20 10
4 -4 7 -2 6 3 -1 6 -1 12 0 15 6 16 5 48 -2 44 -4 -3 -8 -1 -8 3 0 5 -9 14
-19 20 -16 10 -23 8 -46 -13z"/>
<path d="M6382 5870 c-10 -16 -10 -20 0 -20 8 0 9 -3 3 -8 -13 -9 -18 -30 -18
-64 0 -16 -3 -28 -8 -28 -5 0 -9 5 -9 12 0 6 -3 8 -7 5 -3 -4 2 -17 13 -28 19
-22 19 -22 -3 -8 -13 8 -23 19 -23 26 0 6 -5 15 -12 19 -7 4 -8 3 -4 -4 4 -7
3 -12 -3 -12 -5 0 -8 -9 -6 -20 2 -11 0 -20 -4 -20 -4 0 -8 -7 -8 -15 0 -8 5
-15 10 -15 5 0 4 -6 -2 -13 -6 -8 -9 -16 -6 -18 2 -3 -5 -6 -17 -6 -12 -1 -24
-7 -28 -14 -5 -6 -13 -8 -20 -4 -9 5 -11 4 -6 -4 7 -11 -17 -44 -27 -35 -2 3
-3 -8 -1 -25 2 -17 -2 -31 -10 -34 -8 -3 -11 -16 -8 -36 3 -25 1 -31 -14 -31
-11 0 -15 -4 -9 -8 13 -9 16 -42 3 -42 -5 0 -6 -4 -3 -10 3 -5 1 -10 -5 -10
-6 0 -9 -4 -5 -9 3 -5 1 -12 -5 -16 -6 -4 -8 -11 -5 -16 4 -5 3 -9 -2 -9 -4 0
-9 -16 -9 -36 -1 -20 -7 -40 -14 -44 -6 -4 -11 -10 -11 -14 3 -21 0 -36 -6
-34 -9 3 -52 -38 -54 -49 -1 -5 -5 -7 -10 -5 -8 2 -13 -13 -10 -31 1 -5 -3 -6
-8 -3 -14 9 -60 -69 -57 -98 2 -14 -1 -26 -5 -26 -10 0 -7 -29 4 -46 7 -13
-16 -38 -26 -28 -4 4 -2 -7 3 -25 7 -24 5 -33 -7 -39 -8 -5 -14 -12 -14 -15 3
-25 0 -47 -7 -43 -4 2 -9 -6 -10 -20 -3 -47 -5 -54 -16 -54 -6 0 -4 -4 4 -10
12 -8 12 -10 -2 -15 -9 -4 -14 -13 -11 -21 3 -8 -1 -14 -8 -14 -11 0 -11 -3 1
-10 8 -5 10 -10 4 -10 -7 0 -14 -16 -16 -35 -2 -19 -1 -35 2 -35 8 0 7 -31 -1
-45 -3 -6 -5 -17 -4 -25 0 -8 -3 -17 -7 -20 -4 -3 -9 -24 -10 -47 -2 -23 -6
-39 -10 -36 -5 2 -9 -1 -9 -6 -2 -15 -6 -31 -9 -33 -1 -2 -4 -12 -6 -23 -2
-11 -5 -29 -8 -40 -2 -11 -5 -24 -5 -28 -1 -5 -5 -5 -11 -2 -6 4 -7 -1 -3 -11
4 -11 2 -15 -4 -11 -7 5 -10 -4 -9 -23 1 -17 -1 -30 -5 -30 -4 0 -10 -7 -13
-16 -3 -8 -2 -12 4 -9 6 3 10 2 10 -3 0 -6 -7 -13 -16 -16 -8 -3 -13 -10 -9
-16 3 -5 1 -19 -6 -31 -8 -16 -8 -20 1 -14 9 6 9 3 1 -13 -6 -11 -11 -30 -11
-42 0 -14 -4 -19 -12 -14 -9 5 -9 2 1 -9 7 -9 9 -17 4 -17 -14 0 -33 -94 -19
-102 8 -6 8 -8 -1 -8 -8 0 -11 -11 -9 -30 2 -17 -1 -33 -6 -36 -5 -3 -4 -12 3
-20 7 -9 8 -14 1 -14 -6 0 -9 -8 -8 -17 2 -10 -2 -21 -8 -25 -8 -6 -7 -8 1 -8
7 0 10 -7 7 -15 -4 -8 -10 -12 -16 -9 -5 3 -9 0 -7 -7 3 -27 -1 -40 -11 -34
-7 4 -9 -3 -6 -19 3 -18 1 -24 -6 -20 -7 5 -9 1 -5 -9 3 -10 2 -17 -4 -17 -6
0 -8 -4 -4 -9 3 -5 0 -13 -6 -16 -5 -4 -8 -13 -5 -20 2 -7 -2 -21 -9 -32 -8
-10 -15 -26 -15 -36 0 -10 -4 -15 -10 -12 -5 3 -10 0 -10 -7 0 -9 -3 -9 -10 2
-5 8 -10 11 -10 5 0 -5 -21 -10 -48 -11 -26 0 -59 -3 -75 -7 -15 -3 -25 -2
-22 3 3 4 0 10 -6 12 -8 3 -6 10 5 21 10 9 14 22 10 28 -4 8 -3 9 4 5 8 -4 12
0 12 11 0 15 2 16 10 3 8 -12 10 -9 10 11 0 32 28 91 40 84 4 -3 6 5 2 17 -3
13 -1 19 6 15 6 -5 9 2 8 18 -2 13 1 22 5 19 8 -4 14 25 10 49 0 4 4 7 10 7 5
0 8 4 4 9 -3 5 -1 12 5 16 6 4 8 11 5 16 -4 5 -2 9 4 9 6 0 8 6 5 14 -3 8 -1
17 5 21 6 3 11 11 11 16 0 6 -5 7 -12 3 -6 -4 -4 3 5 15 8 13 13 30 10 37 -3
8 -1 14 4 14 5 0 9 21 9 46 -1 25 3 48 8 51 4 3 2 9 -5 14 -11 7 -11 9 -1 9 7
0 10 5 7 10 -3 6 0 10 7 10 10 0 9 3 -2 10 -8 5 -11 12 -7 16 4 4 2 13 -4 21
-9 10 -8 13 0 13 7 0 9 5 6 10 -3 6 0 10 7 10 9 0 10 2 2 8 -13 8 -10 62 4 90
5 9 7 23 4 31 -2 7 2 17 9 22 8 5 9 9 4 9 -6 0 -12 14 -13 32 -2 17 -8 38 -15
47 -9 12 -9 13 0 7 9 -5 12 0 11 18 -1 15 -6 26 -11 26 -5 0 -4 7 3 15 9 11 9
15 1 15 -7 0 -10 4 -7 8 3 5 -2 21 -10 37 -12 23 -12 30 -2 37 10 6 10 8 1 8
-7 0 -13 9 -13 21 0 11 -4 18 -9 14 -6 -3 -8 4 -6 15 2 12 -1 20 -10 20 -8 0
-11 7 -8 20 3 11 1 20 -5 20 -6 0 -14 10 -18 23 -4 12 -12 25 -18 29 -8 6 -7
8 2 8 6 0 12 5 12 11 0 5 -4 7 -10 4 -5 -3 -15 7 -22 22 -7 15 -24 38 -38 51
-14 13 -19 21 -12 17 17 -9 15 12 -2 22 -8 4 -16 12 -18 18 -2 5 -7 9 -12 7
-5 -2 -4 3 3 12 9 11 9 16 0 22 -8 5 -10 2 -5 -7 4 -8 1 -5 -6 5 -7 11 -23 29
-35 41 -13 12 -29 37 -37 56 -8 19 -24 40 -35 48 -11 8 -17 19 -14 24 3 6 1 7
-6 3 -14 -9 -43 12 -35 25 3 5 -2 6 -10 3 -9 -3 -17 2 -21 15 -3 12 -13 21
-21 21 -17 0 -56 60 -49 78 2 6 -1 12 -7 12 -7 0 -6 5 2 15 9 11 10 15 1 15
-8 0 -10 8 -6 20 4 14 1 22 -10 26 -13 6 -14 8 -3 15 8 6 9 9 1 9 -6 0 -10 11
-8 25 1 14 -3 25 -9 25 -6 0 -5 4 2 9 11 7 11 9 0 13 -8 4 -13 19 -12 41 2 29
-2 36 -21 39 -15 3 -22 0 -22 -11 0 -34 -3 -42 -15 -35 -7 5 -8 3 -2 -7 12
-19 12 -32 0 -48 -9 -12 -8 -13 3 -7 9 6 12 4 9 -5 -3 -8 -11 -14 -19 -14 -8
0 -20 -13 -28 -28 -8 -16 -17 -24 -20 -19 -9 13 -51 22 -51 11 0 -5 -4 -9 -10
-9 -5 0 -10 6 -10 13 0 8 -6 14 -12 15 -41 3 -91 23 -106 41 -10 12 -12 12 -6
1 7 -12 5 -13 -8 -3 -8 7 -18 10 -21 6 -4 -3 -7 -1 -7 6 0 9 -5 9 -20 1 -15
-8 -20 -8 -20 1 0 8 -4 8 -13 1 -8 -7 -18 -7 -27 -2 -8 5 -21 5 -32 -1 -12 -7
-18 -6 -18 1 0 6 -5 8 -12 3 -19 -11 -38 -12 -38 -2 0 6 -6 7 -12 3 -18 -11
-48 -12 -48 -2 0 5 -9 4 -20 -2 -15 -8 -20 -8 -20 1 0 8 -4 8 -15 -1 -11 -9
-15 -9 -15 -1 0 7 -5 9 -12 5 -20 -12 -58 -14 -58 -2 0 6 -6 6 -15 -2 -11 -9
-15 -9 -15 -1 0 7 -5 9 -12 4 -21 -12 -38 -12 -38 0 0 7 -5 5 -10 -3 -7 -11
-10 -11 -10 -2 0 9 -5 10 -17 4 -10 -5 -24 -7 -30 -5 -8 3 -13 -4 -13 -16 0
-11 -5 -23 -10 -26 -8 -5 -8 -11 -1 -19 7 -9 7 -16 -2 -25 -9 -9 -9 -14 3 -21
16 -10 15 -10 -45 -15 -11 -1 -29 3 -40 8 -18 9 -19 9 -6 -7 8 -9 10 -16 5
-14 -5 2 -9 0 -9 -3 0 -3 -6 -13 -14 -23 -12 -14 -12 -16 3 -10 9 3 16 2 16
-3 0 -5 12 -9 28 -8 15 0 30 -4 34 -10 5 -6 8 -5 8 3 0 9 5 10 19 3 10 -6 21
-7 25 -4 3 3 6 1 6 -6 0 -7 5 -9 10 -6 7 4 10 -6 9 -27 -3 -61 1 -77 22 -89
17 -9 20 -8 13 3 -6 10 -5 11 7 1 8 -6 25 -13 39 -15 14 -1 28 -7 31 -11 4 -5
18 -10 32 -10 14 -1 24 -4 22 -7 -2 -3 3 -11 11 -18 11 -10 14 -10 14 0 0 11
2 11 8 0 5 -8 16 -10 27 -6 11 5 16 4 12 -2 -4 -6 6 -9 24 -6 18 3 29 0 29 -7
0 -7 4 -10 9 -7 14 9 41 -5 41 -21 0 -8 5 -11 10 -8 6 3 10 0 10 -8 0 -8 9
-13 22 -12 31 2 48 -16 37 -37 -6 -11 -6 -18 0 -18 12 0 1 -43 -13 -52 -7 -5
-6 -8 3 -8 11 0 11 -3 0 -17 -12 -15 -12 -16 1 -8 12 7 13 6 3 -7 -7 -8 -10
-18 -6 -21 3 -4 2 -7 -3 -7 -5 0 -10 -10 -11 -22 -1 -11 -6 -24 -10 -27 -4 -3
-9 -13 -11 -21 -2 -8 -8 -17 -13 -18 -5 -2 -6 -8 -3 -13 3 -6 1 -16 -5 -22
-12 -16 -18 -78 -7 -95 4 -7 2 -12 -6 -12 -9 0 -9 -3 2 -10 12 -7 12 -10 1
-10 -7 0 -11 -6 -8 -13 3 -7 -1 -21 -8 -31 -8 -10 -11 -24 -8 -32 3 -8 0 -14
-6 -14 -6 0 -11 -9 -11 -21 0 -11 -4 -17 -10 -14 -5 3 -10 -1 -10 -9 0 -8 -7
-19 -16 -24 -9 -5 -15 -12 -15 -15 3 -20 0 -28 -8 -22 -5 3 -13 0 -17 -6 -4
-8 -3 -9 4 -5 17 10 15 -4 -3 -24 -9 -10 -18 -30 -21 -46 -3 -16 -9 -31 -13
-34 -7 -4 -23 -43 -26 -60 0 -3 -4 -11 -8 -17 -5 -8 -3 -13 5 -13 9 0 9 -3 -2
-10 -8 -5 -11 -10 -6 -10 5 0 2 -8 -5 -17 -12 -15 -12 -16 1 -8 13 8 13 7 1
-8 -9 -12 -10 -17 -2 -17 7 0 9 -5 4 -12 -14 -23 -14 -50 -1 -42 10 6 10 4 0
-8 -7 -9 -14 -32 -15 -51 -1 -19 -6 -33 -11 -29 -5 3 -7 -1 -4 -10 4 -9 -4
-22 -18 -33 -13 -10 -24 -24 -24 -31 0 -7 -6 -17 -12 -21 -16 -10 -17 -35 -3
-45 6 -5 5 -8 -2 -8 -7 0 -13 -6 -13 -14 0 -8 6 -17 13 -19 7 -4 6 -6 -4 -6
-12 -1 -15 -9 -13 -32 2 -18 0 -28 -6 -24 -5 3 -7 0 -4 -8 3 -8 -2 -20 -10
-27 -9 -7 -13 -16 -10 -22 3 -5 0 -15 -6 -23 -6 -8 -8 -20 -4 -26 4 -7 3 -9
-3 -6 -6 4 -17 -1 -24 -10 -12 -14 -12 -16 0 -8 10 5 12 4 7 -3 -4 -7 -15 -12
-24 -12 -13 0 -14 -2 -4 -9 11 -6 10 -10 -3 -15 -14 -5 -15 -9 -5 -21 10 -12
10 -15 0 -15 -7 0 -10 -7 -6 -15 3 -8 0 -15 -7 -15 -9 0 -8 -3 1 -9 11 -7 10
-9 -3 -15 -9 -3 -14 -10 -11 -15 4 -5 2 -21 -4 -35 -6 -17 -6 -26 0 -26 6 0
10 -5 10 -11 0 -5 -4 -7 -10 -4 -5 3 -11 -3 -11 -14 -1 -12 -3 -25 -4 -31 -1
-5 -3 -15 -4 -21 0 -5 -7 -7 -13 -3 -8 5 -8 1 1 -10 10 -12 11 -20 4 -24 -5
-4 -9 -15 -7 -24 1 -10 -2 -20 -7 -24 -5 -3 -7 -10 -3 -15 3 -5 0 -16 -6 -24
-10 -12 -10 -15 1 -15 10 -1 9 -5 -4 -14 -10 -8 -18 -17 -18 -20 1 -3 1 -7 0
-8 0 -2 -2 -10 -4 -18 -2 -8 -7 -24 -11 -34 -5 -14 -4 -17 4 -12 7 4 12 2 12
-3 0 -6 -5 -11 -11 -11 -5 0 -7 -4 -4 -10 3 -5 1 -10 -6 -10 -8 0 -9 -4 0 -13
8 -10 7 -17 -2 -27 -9 -10 -9 -11 1 -5 11 6 11 3 0 -14 -7 -12 -16 -21 -21
-21 -4 0 -6 -4 -3 -8 3 -5 -1 -9 -9 -9 -8 0 -12 4 -10 8 3 4 -2 10 -11 13 -9
4 -14 13 -10 21 3 10 -1 15 -12 15 -14 0 -14 2 -3 9 11 7 9 10 -8 16 -18 5
-19 10 -10 27 6 12 7 18 1 14 -5 -3 -16 2 -23 11 -11 13 -11 15 -1 9 11 -7 11
-4 0 15 -7 13 -17 27 -23 31 -7 5 -7 8 0 8 6 0 1 7 -9 15 -11 8 -16 15 -10 15
5 0 -11 18 -35 40 -25 22 -41 40 -38 40 4 0 -7 15 -24 33 -17 17 -35 31 -40
30 -5 -2 -8 3 -6 10 1 6 -4 11 -11 9 -8 -1 -12 3 -10 10 6 16 -12 35 -38 40
-11 2 -20 13 -22 27 -3 17 0 21 9 15 9 -5 11 -2 6 9 -4 11 -2 14 8 10 8 -3 18
2 21 11 3 9 10 13 15 10 5 -3 9 2 9 12 0 14 3 14 15 4 13 -11 14 -10 9 6 -4
10 -4 16 1 12 4 -4 17 -2 28 3 16 9 17 13 6 20 -11 7 -11 9 3 9 11 0 15 5 12
15 -4 10 0 15 15 15 12 0 21 5 21 10 0 6 11 16 25 22 14 6 25 18 25 25 0 8 5
11 12 7 8 -5 9 -2 4 12 -4 10 -4 15 0 12 10 -11 32 15 26 31 -3 8 -1 12 4 8 6
-3 16 3 23 15 8 13 9 18 1 13 -7 -4 -7 1 2 14 7 12 16 21 21 21 4 0 5 6 1 13
-5 7 0 6 11 -3 10 -8 16 -10 13 -5 -6 11 16 37 25 29 2 -3 8 7 11 21 4 14 10
23 15 20 8 -4 17 8 20 28 2 14 26 35 35 29 5 -3 6 -1 3 5 -3 5 1 22 8 37 8 16
12 33 8 39 -3 6 -1 7 6 3 7 -5 13 3 17 23 4 17 10 31 14 31 4 0 11 10 15 23 4
12 8 24 9 27 1 3 8 15 15 28 7 13 10 30 7 38 -3 7 0 13 6 11 5 -1 12 6 14 16
6 27 12 51 14 57 1 3 2 9 1 14 -1 5 6 18 16 29 12 14 13 18 3 12 -13 -8 -13
-6 -2 8 8 9 11 21 7 27 -3 5 -1 10 5 10 7 0 10 7 6 15 -3 8 -1 15 5 15 6 0 7
5 4 10 -3 6 0 10 7 10 9 0 9 3 -2 10 -8 5 -10 10 -4 10 6 0 10 15 9 35 -2 24
2 38 14 45 14 8 14 9 0 10 -9 0 -16 7 -16 15 0 8 4 12 9 9 4 -3 7 6 6 20 -1
15 -5 26 -8 26 -3 0 -6 8 -7 18 -3 43 -8 62 -15 62 -5 0 -4 9 2 20 6 11 7 20
2 20 -4 0 -9 14 -10 32 -2 17 -7 37 -13 44 -6 7 -8 18 -4 24 3 5 1 10 -4 10
-6 0 -10 3 -9 8 5 17 -14 52 -24 46 -7 -5 -9 -1 -5 9 4 10 0 20 -11 26 -10 7
-12 11 -4 11 10 0 10 3 0 14 -7 8 -17 11 -22 8 -5 -3 -6 0 -2 7 4 6 1 14 -7
17 -14 5 -33 49 -29 67 1 4 -5 7 -15 7 -9 0 -14 2 -11 5 3 3 -7 19 -23 36 -17
19 -26 36 -22 46 5 11 3 14 -6 9 -7 -5 -19 0 -29 11 -19 22 -28 48 -12 38 5
-3 10 -1 10 4 0 6 6 11 14 11 8 0 18 5 22 12 5 7 3 8 -7 3 -12 -8 -12 -6 0 8
7 9 10 17 5 17 -4 0 -2 6 4 12 10 10 8 16 -10 31 -13 10 -16 15 -8 11 12 -6
13 -4 3 6 -7 8 -26 15 -42 16 -16 1 -35 5 -42 9 -8 5 -10 4 -5 -4 4 -6 1 -14
-8 -17 -8 -3 -19 -19 -25 -35 -9 -27 -12 -29 -33 -17 -13 7 -25 15 -28 18 -9
10 -65 33 -84 35 -10 1 -26 11 -35 22 -9 11 -27 19 -43 18 -16 0 -28 3 -28 8
0 4 -8 4 -17 -1 -12 -7 -24 -5 -40 5 -13 8 -23 11 -23 7 0 -5 -4 -3 -9 5 -7
12 -13 12 -24 3 -7 -7 -16 -9 -20 -6 -10 10 -57 11 -57 1 0 -5 -8 -3 -17 4
-10 7 -15 9 -11 5 9 -11 -31 -48 -43 -40 -5 3 -9 -1 -9 -8 0 -10 -2 -10 -9 1
-5 7 -11 9 -14 4 -4 -6 -19 -9 -34 -8 -17 0 -35 -7 -46 -19 -15 -19 -16 -19
-10 -2 5 16 3 17 -12 9 -10 -6 -27 -8 -38 -5 -15 4 -18 2 -12 -9 6 -11 5 -12
-6 -1 -16 15 -33 16 -23 1 4 -7 0 -9 -14 -5 -12 4 -26 1 -35 -8 -8 -8 -17 -12
-21 -9 -3 4 -13 -2 -21 -13 -15 -19 -15 -19 -9 1 5 17 4 18 -8 5 -7 -9 -23
-15 -35 -14 -13 1 -23 -3 -23 -8 0 -5 -5 -6 -10 -3 -5 3 -10 1 -10 -4 0 -6 -6
-11 -14 -11 -8 0 -17 -7 -20 -16 -5 -14 -9 -14 -23 -3 -9 8 -14 9 -10 3 3 -6
-4 -16 -17 -22 -19 -9 -25 -8 -30 4 -3 8 -1 14 3 14 5 0 7 8 4 19 -3 10 0 22
7 26 8 5 7 11 -2 23 -10 12 -10 14 0 8 6 -4 12 -2 12 3 0 6 -6 11 -12 11 -10
0 -10 2 -1 8 7 4 11 17 11 28 -2 27 -38 30 -38 3 0 -10 -6 -19 -12 -19 -10 0
-9 -3 1 -9 10 -6 10 -10 1 -16 -6 -4 -9 -13 -6 -20 2 -7 -3 -16 -12 -20 -14
-5 -14 -7 -2 -15 11 -7 12 -10 2 -10 -7 0 -10 -4 -7 -10 3 -5 2 -10 -4 -10 -6
0 -7 -7 -4 -17 4 -10 2 -14 -4 -10 -7 5 -9 0 -6 -12 3 -10 -1 -22 -8 -26 -8
-5 -10 -4 -5 3 4 7 2 12 -3 12 -6 0 -10 3 -10 8 6 36 -14 43 -32 11 -7 -14 -7
-19 0 -15 5 4 4 -6 -4 -20 -8 -15 -12 -31 -9 -36 3 -4 0 -8 -5 -8 -6 0 -11 -7
-11 -15 0 -16 -39 -36 -52 -28 -5 2 -8 -3 -8 -12 0 -9 -4 -14 -9 -10 -6 3 -15
-4 -21 -15 -6 -11 -18 -20 -28 -20 -18 0 -74 -39 -57 -40 6 0 -12 -14 -40 -31
-27 -17 -41 -28 -30 -25 18 5 18 5 3 -7 -9 -7 -14 -18 -10 -24 8 -12 42 -13
42 -2 0 5 7 6 15 3 11 -5 13 -2 8 12 -5 13 -3 16 10 11 11 -4 14 -2 10 9 -4
11 0 15 13 14 34 -4 44 0 66 22 33 33 49 32 30 -2 -9 -16 -20 -26 -24 -24 -5
3 -8 -2 -8 -11 0 -10 -5 -13 -12 -9 -9 5 -9 2 1 -9 9 -11 10 -17 2 -17 -6 0
-11 -5 -11 -11 0 -5 6 -7 13 -4 6 4 1 -3 -13 -15 -14 -12 -19 -19 -11 -15 9 5
7 -1 -4 -19 -10 -15 -18 -39 -19 -54 -1 -16 -9 -41 -20 -56 -10 -16 -13 -25
-6 -21 16 10 -1 -22 -27 -50 -10 -12 -19 -27 -21 -35 -2 -8 -9 -18 -15 -22 -9
-6 -8 -8 2 -8 10 0 11 -3 2 -13 -6 -8 -8 -17 -4 -20 3 -4 1 -7 -6 -7 -7 0 -11
-7 -8 -15 4 -8 2 -17 -2 -20 -5 -3 -7 -14 -4 -25 3 -12 -2 -29 -13 -42 -11
-12 -13 -18 -6 -14 7 4 3 -9 -8 -29 -11 -20 -15 -33 -9 -29 8 5 9 3 3 -7 -11
-18 -14 -39 -5 -39 4 0 7 -40 7 -90 -1 -49 -4 -90 -8 -90 -4 0 -5 -9 -3 -20 2
-11 -1 -22 -6 -25 -5 -4 -7 -10 -4 -15 3 -5 1 -12 -5 -15 -8 -5 -7 -11 1 -21
9 -11 8 -15 -4 -20 -9 -3 -14 -14 -12 -25 2 -10 1 -18 -3 -18 -21 3 -29 -3
-28 -23 1 -13 -2 -26 -7 -29 -4 -3 -9 -22 -10 -42 -1 -20 -6 -37 -12 -37 -5 0
-3 -5 5 -10 9 -6 11 -10 3 -10 -7 0 -10 -7 -7 -15 4 -8 1 -15 -4 -15 -6 0 -9
-9 -7 -20 2 -11 -1 -20 -6 -20 -6 0 -7 -5 -4 -10 3 -6 0 -13 -9 -16 -8 -3 -12
-12 -9 -20 3 -8 1 -14 -4 -14 -5 0 -8 -13 -7 -30 1 -16 -2 -30 -7 -30 -6 0 -5
-9 1 -20 8 -15 8 -20 -2 -20 -9 0 -9 -3 2 -10 10 -7 11 -10 2 -10 -8 0 -11 -9
-8 -25 3 -15 0 -25 -7 -25 -8 0 -7 -3 2 -9 8 -5 9 -11 3 -15 -6 -3 -8 -16 -4
-28 3 -12 1 -19 -5 -15 -5 3 -8 -8 -7 -29 2 -19 0 -32 -5 -30 -10 6 -8 -25 3
-42 4 -7 3 -19 -3 -26 -6 -7 -8 -16 -4 -19 3 -4 1 -7 -6 -7 -7 0 -10 -4 -6
-10 3 -5 -3 -18 -15 -30 -11 -11 -18 -20 -15 -20 2 0 1 -10 -4 -22 -4 -13 -5
-35 0 -50 6 -22 5 -26 -9 -20 -15 5 -15 4 -3 -11 9 -11 11 -26 5 -44 -4 -16
-8 -32 -8 -38 -1 -5 -5 -13 -9 -16 -4 -3 -10 -23 -13 -45 -3 -21 -8 -41 -12
-44 -4 -3 -14 -14 -22 -24 -13 -18 -13 -19 0 -11 8 4 6 -2 -5 -13 -36 -37 -44
-50 -38 -56 4 -3 1 -6 -6 -6 -8 0 -11 -8 -8 -20 3 -11 1 -18 -4 -14 -5 3 -9
-7 -9 -21 0 -16 -4 -24 -11 -19 -8 5 -8 1 0 -14 9 -17 7 -23 -9 -35 -11 -7
-18 -16 -16 -18 2 -2 -7 -5 -20 -5 -13 -1 -24 2 -24 7 0 5 -5 9 -11 9 -5 0 -7
-5 -3 -12 4 -6 -4 -3 -18 8 -17 13 -22 21 -14 26 8 6 7 8 -2 8 -8 0 -12 6 -9
13 2 6 0 20 -5 31 -7 13 -7 16 1 12 6 -4 11 -2 11 3 0 6 -7 11 -15 11 -8 0
-15 5 -15 10 0 6 -4 10 -10 10 -5 0 -9 -5 -7 -12 1 -7 -7 -12 -18 -12 -11 0
-23 -5 -27 -11 -4 -5 -8 0 -8 13 0 12 -6 22 -12 22 -9 0 -8 4 2 10 8 5 10 10
5 10 -6 0 -10 25 -9 60 1 36 -2 57 -8 54 -6 -4 -5 3 1 15 9 16 9 21 0 21 -9 0
-9 3 0 14 8 10 8 16 -2 24 -7 6 -12 25 -11 42 1 16 -2 30 -6 30 -4 0 -7 11 -6
24 0 13 4 22 9 19 4 -2 7 1 7 6 0 6 -6 11 -12 11 -9 0 -8 4 2 10 11 7 11 10 2
10 -10 0 -10 5 -2 20 8 15 8 20 -2 20 -10 0 -10 2 1 9 16 10 23 93 7 84 -6 -4
-2 4 9 17 11 13 14 20 8 16 -15 -8 -17 3 -3 24 5 9 5 19 -2 27 -7 9 -7 13 2
13 10 0 10 3 0 15 -10 12 -10 15 0 15 10 0 10 3 0 15 -7 9 -8 15 -2 15 12 0
26 47 35 117 1 12 6 25 10 29 4 4 1 14 -6 22 -7 10 -8 13 -1 9 12 -7 37 70 28
85 -3 4 0 8 5 8 6 0 11 5 11 11 0 5 -6 7 -13 4 -6 -4 -3 1 7 9 13 10 15 16 7
16 -10 0 -11 3 -2 13 6 8 8 17 4 20 -3 4 -1 7 6 7 8 0 11 6 7 16 -3 8 -2 13 3
9 5 -3 8 13 7 35 -2 22 0 40 4 40 4 0 6 14 5 30 -1 17 2 30 7 30 6 0 4 8 -3
17 -12 14 -12 16 0 8 11 -6 13 -3 9 13 -4 12 -2 22 2 22 5 0 7 8 6 18 -2 9 2
20 8 25 8 5 6 10 -4 17 -8 5 -10 10 -5 10 6 0 11 15 12 33 2 62 7 92 17 106 8
11 8 13 -2 7 -7 -4 -3 9 8 29 12 21 15 34 8 30 -7 -4 -4 1 7 10 22 18 30 85
11 97 -7 5 -7 8 3 8 8 0 11 6 7 16 -5 12 -2 15 10 10 14 -5 15 -4 4 9 -9 11
-10 19 -2 27 6 6 8 17 5 26 -5 11 -3 13 7 7 8 -5 11 -4 7 2 -4 6 0 23 8 39 7
15 11 32 8 37 -4 6 0 8 10 4 11 -4 14 -2 10 9 -3 8 0 21 6 28 9 11 9 15 -1 19
-8 3 -6 6 6 6 15 1 16 4 6 16 -7 8 -8 15 -3 15 5 0 9 29 8 66 -1 36 2 67 7 70
4 3 8 11 8 17 0 7 -4 6 -10 -3 -6 -10 -8 1 -6 35 2 28 5 50 6 50 1 0 4 13 6
30 3 16 8 32 12 35 4 3 8 16 10 30 5 56 10 75 19 73 14 -3 9 40 -5 45 -7 2
-10 8 -6 13 3 5 0 9 -5 9 -6 0 -11 -5 -11 -11 0 -5 -4 -8 -9 -4 -6 3 -8 -4 -6
-15 2 -11 0 -18 -6 -15 -5 4 -9 -1 -9 -10 0 -10 -5 -13 -12 -9 -10 6 -10 5 0
-8 10 -13 9 -18 -5 -29 -15 -12 -16 -12 -8 1 8 13 6 13 -8 1 -9 -7 -24 -11
-32 -7 -10 3 -15 -1 -15 -12 0 -11 -3 -13 -8 -6 -8 13 -50 13 -71 0 -8 -5 -16
-3 -22 5 -8 13 -13 6 -10 -13 0 -5 -4 -8 -9 -8 -6 0 -21 -11 -34 -25 -13 -13
-26 -22 -29 -18 -4 3 -7 -1 -7 -10 0 -9 -6 -17 -14 -17 -8 0 -18 -9 -21 -20
-3 -11 -13 -20 -21 -20 -8 0 -12 -4 -9 -10 3 -5 0 -10 -7 -10 -19 0 -19 121 0
128 6 2 9 8 6 14 -4 6 -1 13 5 17 6 4 13 20 15 37 2 16 7 38 11 49 5 15 4 16
-3 6 -8 -11 -10 -8 -9 12 1 14 6 23 11 20 5 -3 7 11 4 31 -2 20 0 36 4 36 5 0
4 9 -2 20 -8 15 -8 20 2 20 10 0 10 2 0 9 -11 6 -10 10 3 15 14 5 15 9 5 21
-10 12 -10 15 0 15 10 0 10 3 1 14 -8 9 -8 16 -2 20 5 4 8 15 6 26 -2 11 0 20
5 20 4 0 5 15 1 33 -5 18 -7 40 -5 50 1 9 -3 17 -9 17 -7 0 -7 4 2 9 8 5 11
16 7 26 -6 16 -4 16 10 4 16 -13 16 -12 6 8 -8 13 -8 24 -2 28 5 3 7 12 4 19
-3 7 2 16 11 20 12 4 14 10 5 25 -7 14 -7 22 1 27 8 4 7 9 -2 15 -8 5 -9 9 -3
9 16 0 15 51 -1 67 -10 10 -14 9 -18 -7 -7 -25 -34 -26 -42 -1 -4 14 -13 17
-36 15 -24 -3 -30 -1 -25 11 3 8 -1 21 -9 29 -8 7 -11 16 -8 20 4 3 -3 6 -13
6 -11 0 -26 6 -33 13 -11 10 -13 10 -7 0 5 -8 1 -13 -9 -13 -33 0 -50 -34 -46
-93 1 -10 5 -16 10 -13 5 4 11 2 13 -3 1 -5 14 -11 28 -13 14 -1 28 -7 32 -13
5 -6 8 -3 8 6 0 22 27 32 34 13 3 -9 10 -12 16 -9 5 3 7 0 5 -7 -4 -9 2 -14
14 -14 11 0 18 4 15 7 -2 4 0 10 6 14 5 3 11 1 11 -4 2 -14 2 -39 0 -49 -1
-10 -41 -10 -58 1 -7 4 -14 -1 -18 -13 -3 -11 -11 -20 -16 -20 -6 0 -7 4 -4
10 3 6 -1 7 -9 4 -9 -4 -16 -1 -16 6 0 7 -6 10 -14 7 -8 -3 -17 -3 -20 1 -10
10 -37 11 -30 1 3 -5 -4 -9 -16 -9 -12 0 -18 -4 -15 -10 3 -5 2 -10 -4 -10 -6
0 -8 -7 -5 -15 4 -8 1 -15 -6 -15 -9 0 -9 -4 1 -17 8 -9 10 -14 4 -11 -5 3
-21 -6 -35 -20 -14 -13 -18 -21 -10 -16 13 7 13 5 1 -9 -7 -9 -18 -14 -24 -10
-5 3 -7 1 -4 -4 4 -6 0 -16 -8 -23 -8 -7 -15 -9 -15 -4 0 4 -7 -1 -16 -12 -8
-10 -13 -12 -9 -4 4 8 0 6 -9 -4 -8 -10 -13 -23 -10 -27 3 -5 0 -9 -6 -9 -6 0
-8 -4 -5 -10 3 -5 2 -10 -3 -10 -11 0 -22 -46 -14 -55 8 -8 9 -55 0 -55 -4 0
-5 -9 -3 -20 2 -11 0 -20 -5 -20 -4 0 -7 -11 -5 -25 1 -14 -1 -25 -6 -25 -4 0
-4 -14 1 -30 5 -19 5 -28 -1 -25 -5 4 -9 -1 -9 -10 0 -9 4 -14 9 -11 8 6 5
-53 -4 -62 -2 -3 0 -13 6 -23 7 -13 6 -19 -1 -19 -7 0 -7 -7 1 -21 8 -15 8
-19 0 -15 -15 10 -14 -7 1 -22 9 -9 9 -12 -1 -12 -8 0 -11 -6 -7 -15 3 -8 2
-15 -3 -15 -11 0 -9 -33 2 -41 5 -4 -1 -15 -13 -27 -12 -11 -22 -26 -24 -33
-1 -8 -6 -20 -10 -28 -7 -10 -5 -12 3 -6 10 5 9 2 0 -13 -7 -12 -17 -18 -23
-15 -5 3 -6 1 -3 -4 8 -13 -17 -65 -27 -56 -4 4 -4 -1 0 -11 4 -11 2 -21 -7
-27 -12 -7 -12 -9 0 -9 11 0 10 -4 -5 -16 -10 -8 -13 -12 -5 -8 9 5 7 -2 -5
-18 -10 -14 -22 -24 -26 -21 -5 2 -8 -3 -8 -11 0 -9 -4 -16 -9 -16 -6 0 -8 -9
-6 -19 3 -14 -1 -18 -11 -14 -9 3 -14 -2 -14 -15 0 -12 -9 -27 -20 -35 -11 -8
-17 -17 -13 -20 3 -4 1 -7 -6 -7 -8 0 -11 -6 -7 -16 4 -10 2 -13 -6 -8 -8 5
-9 2 -5 -10 4 -9 3 -15 -2 -12 -5 3 -15 -2 -22 -11 -12 -14 -12 -16 1 -8 10 5
9 1 -3 -13 -11 -11 -16 -25 -12 -31 4 -7 0 -8 -11 -4 -12 4 -15 3 -10 -5 4 -7
2 -12 -4 -12 -6 0 -21 -10 -33 -21 -12 -12 -15 -19 -7 -15 9 5 8 2 -2 -7 -10
-8 -18 -20 -18 -27 0 -7 -8 -19 -17 -27 -10 -8 -12 -12 -5 -8 6 3 12 1 12 -4
0 -6 -6 -11 -14 -11 -8 0 -18 -5 -22 -12 -5 -7 -3 -8 7 -2 8 4 -3 -9 -24 -29
-20 -21 -37 -47 -37 -58 0 -13 -4 -18 -12 -13 -6 4 -8 3 -5 -3 3 -5 0 -21 -8
-36 -7 -14 -11 -28 -7 -31 3 -3 0 -6 -7 -6 -7 0 -10 -4 -6 -9 3 -5 -1 -15 -8
-23 -8 -7 -12 -19 -9 -26 2 -6 -2 -12 -9 -12 -7 0 -9 -3 -6 -6 3 -4 1 -16 -5
-28 -7 -11 -11 -24 -10 -28 1 -3 -5 -9 -14 -12 -9 -3 -12 -2 -9 5 4 5 1 16 -5
24 -10 12 -10 15 1 15 10 0 10 3 1 12 -15 15 -16 32 -1 22 8 -4 8 0 0 15 -7
11 -9 21 -5 21 3 0 0 8 -7 17 -12 15 -12 16 1 8 13 -8 13 -6 2 8 -8 9 -11 21
-7 27 3 5 3 10 -2 10 -4 0 -9 10 -10 23 -4 38 -8 54 -19 68 -14 18 -25 61 -14
54 5 -3 11 -1 15 5 3 5 0 10 -7 10 -9 0 -9 3 2 10 12 8 12 10 1 10 -9 0 -10 4
-4 13 12 14 13 47 2 47 -5 0 -7 13 -5 29 2 20 -2 32 -11 36 -8 3 -12 12 -9 20
3 8 1 15 -3 15 -5 0 -8 11 -6 25 1 14 -1 25 -5 25 -10 0 -7 26 3 36 4 4 2 13
-4 21 -9 10 -8 13 2 13 12 0 12 2 1 9 -8 4 -14 12 -14 16 0 4 6 12 14 16 7 5
8 9 2 9 -12 0 -12 28 -1 47 4 6 3 14 -3 18 -5 3 -10 17 -10 30 0 13 -6 26 -12
28 -10 4 -10 6 0 6 15 1 16 41 1 41 -6 0 -9 6 -6 14 3 8 3 17 -1 20 -3 4 -7
12 -9 19 -10 48 -16 85 -17 105 0 12 -3 22 -6 22 -3 0 -6 27 -6 60 1 33 -2 60
-6 60 -5 0 -8 5 -8 11 0 5 3 8 8 6 4 -3 6 28 4 69 -3 61 -7 76 -23 84 -15 8
-17 7 -13 -5 4 -8 1 -15 -6 -15 -6 0 -8 -5 -5 -10 4 -6 1 -17 -5 -25 -10 -12
-10 -15 0 -15 6 0 10 -6 7 -12 -2 -7 -11 -12 -20 -10 -17 3 -57 -47 -57 -72 0
-9 -5 -16 -11 -16 -6 0 -9 -7 -6 -14 4 -10 1 -13 -9 -9 -7 3 -14 9 -14 15 0 5
-4 6 -10 3 -9 -6 -15 25 -10 50 1 5 -2 7 -5 3 -4 -4 -21 0 -37 8 -17 9 -27 11
-24 5 4 -6 2 -11 -4 -11 -6 0 -9 -4 -6 -9 3 -5 -2 -12 -11 -15 -14 -6 -15 -9
-4 -15 10 -6 10 -10 1 -16 -8 -5 -6 -11 6 -20 25 -18 26 -74 3 -107 -11 -15
-17 -32 -14 -38 3 -5 1 -10 -5 -10 -6 0 -8 -5 -5 -10 3 -6 0 -12 -7 -15 -8 -3
-14 -13 -15 -23 -2 -29 -22 -72 -33 -72 -5 0 -9 -3 -9 -7 4 -19 -27 -74 -44
-79 -12 -4 -15 -10 -9 -17 4 -7 7 -22 6 -34 0 -13 2 -23 6 -23 9 0 6 -32 -5
-49 -6 -10 -4 -12 4 -7 15 10 11 -25 -4 -36 -6 -5 -4 -12 5 -18 11 -7 11 -10
2 -10 -7 0 -10 -4 -7 -10 3 -5 0 -10 -7 -10 -9 0 -9 -3 2 -10 11 -7 11 -10 2
-10 -7 0 -10 -5 -6 -11 3 -6 0 -15 -7 -20 -12 -7 -12 -9 0 -9 11 0 11 -3 1
-15 -10 -12 -10 -15 0 -15 9 0 9 -4 -1 -17 -12 -15 -12 -16 1 -8 12 7 13 6 2
-7 -14 -18 -12 -68 3 -68 5 0 3 -5 -5 -10 -9 -6 -10 -10 -3 -10 13 0 14 -39 1
-57 -5 -6 -5 -14 2 -18 6 -3 7 -12 3 -18 -12 -19 -12 -61 1 -76 9 -12 8 -13
-3 -7 -11 7 -13 1 -9 -28 2 -20 0 -36 -5 -36 -5 0 -7 -6 -4 -14 3 -7 0 -19 -6
-25 -8 -8 -7 -11 3 -11 11 -1 10 -3 -3 -11 -9 -6 -15 -14 -12 -20 4 -5 3 -14
-1 -20 -6 -11 -16 -83 -15 -122 0 -9 -4 -15 -8 -13 -9 6 -9 -120 1 -129 4 -4
3 -18 -2 -31 -7 -17 -6 -24 3 -24 8 0 9 -3 1 -8 -6 -4 -10 -45 -10 -104 1 -61
-3 -94 -9 -90 -5 3 -4 -1 3 -10 9 -11 10 -18 2 -23 -6 -3 -7 -11 -4 -17 8 -13
11 -128 3 -128 -3 0 -3 -20 1 -45 4 -24 3 -42 -2 -39 -5 3 -6 -8 -3 -25 4 -21
1 -31 -7 -31 -8 0 -9 -3 -3 -8 13 -9 18 -32 7 -32 -4 0 -8 -9 -8 -20 0 -11 4
-20 8 -20 5 0 4 -10 -3 -21 -8 -16 -8 -20 1 -14 9 6 9 2 1 -14 -9 -16 -9 -21
1 -21 10 0 10 -2 1 -8 -8 -5 -9 -13 -3 -22 5 -8 5 -21 -1 -32 -7 -13 -6 -18 2
-18 8 0 8 -4 -1 -15 -10 -12 -10 -15 1 -15 9 0 10 -3 4 -8 -11 -8 -16 -42 -6
-42 4 0 7 -9 7 -20 0 -11 -5 -20 -11 -20 -5 0 -4 -4 4 -9 12 -8 12 -12 2 -25
-10 -12 -10 -16 -2 -16 7 0 10 -4 6 -9 -3 -5 1 -15 8 -23 14 -13 17 -21 17
-39 0 -5 5 -7 10 -4 6 3 10 1 10 -5 0 -8 6 -8 20 0 12 6 20 21 20 36 0 14 4
23 9 19 6 -3 8 4 6 15 -2 11 0 20 5 20 5 0 14 10 21 21 8 15 8 19 0 15 -18
-11 -13 5 6 21 10 8 12 11 5 8 -11 -6 -12 -3 -3 14 7 11 14 21 17 21 3 0 2 -6
-2 -12 -5 -10 -4 -10 6 -1 8 7 15 22 17 34 2 12 11 28 21 35 14 11 14 13 2 14
-12 0 -13 2 -1 9 7 5 14 19 15 32 1 15 7 23 16 21 11 -3 11 0 1 11 -9 12 -9
16 1 20 10 4 10 6 0 6 -10 1 -9 5 3 17 13 14 14 19 3 25 -7 5 -8 9 -2 9 6 0
12 25 13 61 1 39 -2 59 -8 55 -6 -4 -8 2 -5 16 10 43 10 63 1 76 -6 8 -5 12 3
12 10 0 10 3 1 14 -8 10 -9 16 -1 21 6 3 8 11 5 16 -4 5 -2 9 4 9 5 0 8 9 6
20 -2 11 0 18 5 15 5 -3 11 4 15 15 3 11 12 20 19 20 6 0 13 8 14 18 4 37 8
51 22 68 9 11 10 15 3 10 -7 -4 -13 -2 -13 3 0 6 4 11 8 11 5 0 8 15 7 34 0
19 3 32 7 30 4 -3 8 4 8 15 0 12 4 21 9 21 12 0 9 33 -4 42 -6 5 -5 8 3 8 6 0
12 7 12 16 0 9 6 14 13 11 6 -2 11 -11 9 -21 -2 -9 3 -16 10 -16 9 0 9 -3 -2
-10 -13 -9 -13 -10 0 -10 13 0 13 -1 0 -10 -8 -5 -10 -10 -5 -10 6 0 12 -15
13 -32 2 -18 7 -35 12 -36 6 -2 7 -8 4 -13 -7 -13 25 -50 37 -43 5 3 6 -1 3
-9 -3 -8 2 -17 11 -21 10 -3 13 -11 9 -18 -4 -7 -9 -24 -10 -38 -1 -14 -5 -41
-9 -60 -5 -19 -8 -45 -8 -57 1 -13 -4 -23 -10 -23 -6 0 -7 -3 -4 -7 4 -3 2
-12 -4 -19 -7 -8 -7 -14 1 -19 8 -5 8 -11 -1 -21 -9 -11 -8 -14 2 -14 12 0 12
-2 1 -9 -8 -4 -13 -11 -13 -15 4 -26 0 -36 -11 -30 -9 5 -9 2 1 -9 13 -16 8
-22 -14 -17 -5 1 -5 -4 2 -10 7 -8 8 -22 3 -40 -7 -26 -6 -28 20 -32 16 -2 27
-2 25 2 -2 4 5 21 16 39 11 18 15 30 9 26 -5 -3 -10 -2 -10 3 0 6 6 12 13 15
8 3 12 18 11 35 -2 36 29 74 39 47 4 -10 0 -15 -11 -16 -16 0 -16 -1 0 -7 12
-5 15 -11 9 -21 -11 -16 7 -63 21 -55 4 3 6 10 3 15 -4 5 -1 9 4 9 6 0 11 6
11 14 0 8 7 17 16 20 24 9 31 7 14 -4 -8 -5 -10 -10 -5 -10 6 0 11 -8 12 -17
1 -10 3 -30 6 -45 3 -21 1 -26 -14 -23 -22 4 -51 -36 -39 -56 6 -8 5 -16 -2
-20 -9 -6 -8 -12 3 -25 12 -16 12 -17 -1 -9 -8 4 -4 -3 9 -16 16 -15 26 -19
29 -11 2 7 9 9 15 5 6 -4 8 0 4 10 -3 8 0 18 8 21 9 3 12 0 8 -10 -3 -7 0 -14
7 -14 7 0 10 -11 8 -27 -3 -29 15 -38 40 -20 10 8 10 13 0 25 -9 11 -9 14 -1
9 9 -5 10 0 4 20 -4 16 -6 34 -3 42 3 9 0 11 -8 6 -9 -6 -9 -3 -1 13 7 14 8
23 1 27 -7 4 -7 13 0 26 8 14 7 19 -1 19 -7 0 -9 3 -6 7 4 3 2 12 -4 20 -9 10
-8 13 2 13 8 0 6 6 -7 16 -10 8 -14 13 -8 10 7 -3 11 6 10 24 -1 17 -4 30 -7
30 -4 0 -10 7 -13 16 -3 8 -2 12 4 9 6 -3 10 3 10 14 0 19 11 26 33 22 5 -1 6
3 2 9 -3 5 2 10 11 10 10 0 15 3 11 6 -8 8 16 33 25 27 4 -2 5 4 1 13 -5 13
-3 15 7 9 9 -5 11 -4 6 4 -4 6 -2 18 4 26 10 12 10 15 0 15 -8 0 -4 8 8 19 12
10 22 23 22 30 0 6 5 11 11 11 5 0 7 5 4 10 -3 6 -2 10 3 10 9 0 26 35 31 63
2 12 36 44 42 41 4 -2 9 6 12 17 3 12 10 18 16 14 7 -3 8 0 5 9 -3 9 -1 16 6
16 6 0 9 4 6 9 -3 5 1 12 10 15 8 3 13 9 11 13 -3 5 6 22 19 38 13 17 24 24
24 17 0 -7 6 -10 13 -7 6 4 1 -3 -13 -15 -14 -12 -19 -19 -12 -15 7 3 12 0 12
-9 0 -8 -6 -17 -12 -19 -7 -3 -8 -6 -2 -6 7 -1 5 -24 -6 -68 -12 -48 -14 -70
-6 -75 8 -5 7 -8 -1 -8 -21 0 -15 -20 10 -30 12 -5 18 -9 13 -9 -5 -1 -3 -8 4
-16 7 -8 8 -15 3 -15 -5 0 -7 -14 -5 -31 3 -24 1 -30 -8 -24 -9 6 -9 3 -1 -13
14 -26 14 -35 1 -27 -6 4 -10 -5 -10 -20 0 -18 -4 -24 -12 -19 -10 6 -10 4 -2
-7 15 -20 15 -59 1 -59 -7 0 -6 -4 3 -10 8 -5 10 -10 5 -10 -6 0 -12 -14 -13
-32 -2 -17 -8 -38 -15 -47 -10 -12 -9 -14 7 -7 19 7 19 6 2 -13 -10 -11 -19
-36 -20 -55 -2 -19 -9 -43 -17 -52 -12 -16 -12 -17 1 -9 13 8 13 7 1 -8 -11
-14 -11 -17 0 -17 12 0 12 -2 0 -9 -9 -6 -10 -11 -2 -15 6 -4 9 -12 6 -17 -4
-5 -1 -9 5 -9 6 0 8 -5 5 -10 -4 -6 0 -21 8 -34 11 -16 12 -27 5 -40 -8 -14
-7 -17 1 -12 15 10 14 1 -4 -33 -8 -16 -11 -31 -8 -35 4 -3 1 -6 -6 -6 -7 0
-9 -5 -5 -12 10 -16 12 -58 2 -58 -4 0 -5 -9 -3 -20 2 -11 1 -20 -3 -20 -11 0
-8 -64 3 -72 7 -5 6 -8 0 -8 -7 0 -10 -36 -9 -97 1 -64 -2 -101 -10 -105 -7
-5 -6 -8 4 -8 13 0 13 -1 0 -10 -13 -9 -13 -10 0 -10 13 0 13 -1 0 -10 -8 -5
-16 -22 -16 -37 -1 -15 -3 -30 -4 -33 -5 -9 -8 -25 -9 -53 0 -16 -5 -26 -9
-23 -5 3 -9 -1 -9 -9 0 -8 5 -11 11 -8 6 4 5 -1 -2 -10 -8 -9 -11 -25 -7 -37
4 -13 2 -20 -6 -20 -7 0 -9 -3 -6 -7 4 -3 2 -12 -4 -20 -9 -10 -8 -13 1 -13 9
0 9 -4 -1 -17 -12 -14 -12 -16 0 -8 11 6 12 5 5 -6 -14 -24 -16 -51 -2 -43 8
5 7 0 -2 -11 -12 -15 -12 -17 -1 -10 11 6 13 4 9 -7 -4 -9 0 -15 8 -15 8 0 15
9 15 19 2 26 3 32 12 45 5 7 5 18 1 25 -4 7 -3 8 4 4 8 -5 12 2 12 19 0 14 4
24 9 21 4 -3 7 6 5 19 -1 14 2 25 7 25 6 0 8 4 4 9 -3 5 -1 12 4 16 10 5 7 36
-4 55 -3 6 2 10 12 10 15 0 16 2 3 10 -12 7 -12 10 -1 10 7 0 11 6 8 15 -4 8
-1 17 5 21 7 5 8 2 3 -6 -5 -8 -4 -11 3 -6 6 3 9 15 7 26 -2 11 1 20 7 20 6 0
8 9 5 20 -3 11 -1 22 4 25 4 3 6 12 2 20 -3 8 0 15 7 15 6 0 8 4 5 10 -3 5 -1
19 6 31 8 17 8 20 -1 14 -7 -4 -4 4 5 19 14 20 14 26 4 26 -12 0 -12 2 0 9 9
6 10 10 2 12 -8 3 -7 11 4 24 9 11 14 14 10 8 -4 -9 2 -13 19 -13 14 0 26 5
26 11 0 5 -6 7 -12 4 -7 -4 -5 0 4 8 10 8 15 17 11 20 -3 4 0 13 7 22 8 10 9
15 1 15 -7 0 -8 8 0 27 7 20 6 28 -3 35 -12 7 -3 12 16 9 5 -1 4 4 -2 12 -7 8
-9 17 -5 21 4 3 8 14 9 24 8 55 12 70 19 82 6 9 4 11 -5 5 -10 -6 -11 -4 -5
11 4 10 8 29 8 42 1 12 4 22 8 22 3 0 9 14 13 31 3 18 14 38 24 46 10 9 11 11
2 7 -12 -7 -13 -5 -3 8 7 8 10 18 6 21 -3 4 -1 7 6 7 7 0 9 5 6 10 -3 6 -2 10
4 10 6 0 7 7 4 17 -4 11 -3 14 5 9 8 -5 10 -2 5 9 -3 10 0 21 8 26 12 7 12 9
0 9 -9 0 -10 4 -3 13 5 6 9 31 8 54 0 22 2 39 6 36 5 -2 8 -1 9 4 0 4 3 19 5
33 2 14 5 36 7 50 1 14 5 30 8 35 4 6 6 26 5 47 0 20 3 34 8 30 5 -3 7 5 4 16
-4 12 -2 25 3 28 5 3 7 10 4 15 -4 5 -1 9 6 9 8 0 8 4 -1 15 -10 12 -9 16 2
20 7 3 15 20 16 38 2 17 7 33 12 35 5 2 5 13 0 27 -6 15 -6 27 1 30 5 4 6 12
2 18 -10 17 -12 97 -2 103 5 2 6 11 2 19 -3 9 1 15 8 15 11 0 11 3 -1 10 -11
7 -11 10 -2 10 9 0 10 5 4 16 -9 17 -4 76 7 70 6 -4 13 37 13 84 1 8 5 20 10
27 5 7 6 18 2 24 -4 7 -3 10 2 7 15 -10 36 24 37 60 0 6 4 12 9 12 4 0 8 5 8
11 0 5 -6 7 -12 4 -7 -4 -5 0 4 8 10 8 15 17 11 20 -3 4 -1 7 6 7 7 0 9 5 6
10 -3 6 -1 10 6 10 7 0 9 8 6 21 -3 12 0 22 9 26 8 3 11 9 8 14 -3 5 0 9 6 9
6 0 8 5 5 10 -4 6 -1 18 7 27 7 10 8 14 1 10 -6 -4 -2 12 10 35 11 24 20 55
18 70 -1 14 2 29 8 33 15 9 14 28 -1 19 -10 -6 -10 -4 0 7 6 7 12 21 12 32 0
12 4 16 13 11 9 -6 9 -4 -1 8 -8 10 -9 19 -3 22 5 4 9 26 8 50 -1 24 1 42 5
40 4 -3 11 4 17 13 9 16 10 16 8 -4 0 -12 -5 -19 -9 -17 -15 10 -8 -9 10 -23
10 -9 11 -12 2 -7 -12 5 -13 4 -3 -6 9 -9 9 -18 1 -33 -7 -15 -7 -22 3 -28 11
-7 11 -9 1 -9 -7 0 -12 -6 -11 -12 3 -26 -1 -39 -11 -33 -13 8 -9 -17 4 -27 6
-4 4 -13 -4 -23 -8 -10 -15 -27 -15 -39 0 -11 -4 -27 -9 -35 -6 -10 -5 -12 2
-7 8 5 10 2 6 -8 -3 -9 -10 -16 -14 -16 -5 0 -7 -9 -5 -20 2 -11 0 -18 -6 -15
-8 5 -13 -9 -6 -18 1 -2 -4 -11 -10 -19 -7 -8 -14 -27 -15 -41 -1 -14 -6 -23
-10 -21 -4 3 -8 -3 -8 -13 0 -11 -5 -24 -12 -31 -7 -7 -8 -12 -3 -12 4 0 0
-10 -11 -22 -10 -12 -13 -18 -7 -14 9 5 11 2 7 -8 -3 -9 -10 -13 -15 -10 -5 3
-6 -2 -3 -10 4 -9 1 -16 -6 -16 -10 0 -10 -3 -1 -14 9 -10 9 -16 1 -21 -6 -4
-9 -13 -6 -21 3 -8 0 -11 -9 -7 -12 4 -14 -2 -8 -27 3 -19 2 -31 -3 -28 -5 4
-9 -22 -8 -58 1 -35 -3 -64 -9 -64 -5 0 -4 -7 3 -15 10 -12 10 -15 -1 -15 -12
0 -12 -2 0 -9 11 -7 11 -9 0 -14 -12 -5 -12 -6 0 -6 11 -1 11 -4 0 -17 -7 -9
-9 -18 -3 -22 14 -11 18 -45 3 -36 -8 5 -9 3 -3 -7 12 -20 12 -93 0 -101 -7
-5 -6 -8 2 -8 8 0 10 -5 6 -12 -11 -18 -12 -48 -2 -54 5 -3 4 -12 -2 -19 -8
-10 -8 -15 0 -20 8 -5 7 -11 -2 -23 -11 -13 -11 -14 2 -7 10 6 9 2 -3 -12 -13
-15 -15 -23 -7 -28 6 -4 9 -13 6 -21 -3 -8 0 -14 7 -14 8 0 8 -3 -2 -9 -9 -6
-10 -11 -2 -15 6 -4 8 -13 4 -19 -9 -16 -11 -47 -2 -42 3 3 6 -9 5 -25 0 -17
-3 -30 -6 -30 -3 0 -6 -11 -6 -25 -1 -16 2 -23 10 -19 6 3 4 0 -4 -8 -17 -15
-15 -62 2 -52 7 5 8 2 2 -7 -12 -19 -12 -33 1 -41 6 -5 5 -8 -4 -8 -11 0 -11
-3 0 -16 7 -9 12 -32 11 -51 -2 -26 0 -33 10 -27 10 6 10 5 1 -7 -7 -9 -8 -20
-3 -29 5 -8 6 -18 4 -22 -3 -4 0 -8 5 -8 6 0 11 -5 11 -11 0 -5 -6 -7 -13 -3
-8 5 -8 2 2 -9 7 -9 10 -17 5 -17 -5 0 0 -7 10 -15 11 -8 16 -15 12 -15 -5 0
-1 -12 9 -26 11 -18 12 -24 4 -18 -12 7 -12 5 -1 -9 8 -9 10 -22 6 -28 -5 -9
-2 -10 11 -5 15 5 16 4 5 -9 -10 -12 -9 -15 6 -15 14 0 15 -3 6 -12 -15 -15
-16 -29 -1 -25 6 1 13 -6 14 -16 2 -9 13 -33 24 -53 12 -19 15 -32 9 -29 -7 4
-5 0 4 -8 10 -8 18 -19 18 -26 0 -6 5 -11 10 -11 6 0 10 -7 10 -15 0 -8 5 -15
11 -15 5 0 7 -4 4 -10 -3 -6 -1 -10 6 -10 7 0 10 -3 6 -6 -6 -6 28 -45 39 -43
3 0 14 -9 24 -21 11 -12 23 -19 29 -16 10 7 34 -27 26 -36 -3 -3 1 -5 8 -6 37
-3 87 -22 87 -33 0 -5 5 -9 11 -9 5 0 7 5 3 12 -5 7 -3 8 7 2 20 -12 38 -14
45 -3 3 6 10 6 17 1 12 -10 32 -13 80 -12 20 0 26 -3 22 -12 -4 -7 -1 -6 7 2
13 14 25 18 78 25 14 1 24 8 22 15 -2 10 1 10 14 -1 10 -8 15 -9 12 -3 -4 5 4
18 17 28 14 10 22 23 18 29 -3 6 -1 7 6 3 6 -4 18 -2 26 4 12 10 15 10 15 0 0
-6 19 8 43 32 28 28 42 51 41 66 -1 13 2 20 8 16 7 -5 9 2 6 19 -3 16 0 31 8
38 8 6 11 15 8 20 -3 5 2 23 10 40 9 17 14 35 11 39 -3 4 2 11 11 14 8 3 12
10 9 16 -3 5 0 7 7 5 9 -4 14 3 15 17 1 13 7 24 13 26 5 2 8 8 4 13 -3 5 0 9
6 9 6 0 9 4 5 9 -3 6 5 20 17 32 21 20 21 21 3 15 -17 -5 -18 -4 -5 6 19 16
45 72 29 62 -8 -5 -8 -1 0 13 6 11 7 23 4 27 -3 3 -1 6 6 6 7 0 9 5 6 10 -3 6
-2 10 3 10 5 0 8 20 8 44 -1 24 2 42 5 40 12 -7 17 34 6 45 -8 8 -8 11 0 11 6
0 9 9 5 22 -3 14 -2 19 6 14 16 -10 15 7 -1 23 -7 9 -7 11 -1 8 7 -4 14 0 18
8 3 8 0 15 -7 15 -8 0 -8 3 2 9 10 6 10 10 1 16 -9 6 -9 9 1 15 12 8 17 27 21
78 1 12 6 22 11 22 5 0 5 6 -2 13 -8 10 -7 17 1 25 9 9 9 12 -2 12 -12 1 -11
3 2 11 14 7 15 15 8 34 -6 15 -6 25 0 25 5 0 7 12 4 26 -3 14 -1 23 4 20 4 -3
7 11 6 30 -2 23 0 32 8 28 8 -5 8 -3 2 7 -14 22 -12 80 3 75 7 -3 10 1 7 7 -2
7 4 22 14 33 10 10 16 26 14 33 -3 8 0 11 7 7 6 -4 11 -1 12 6 1 22 7 50 12
54 5 5 22 -66 19 -78 -1 -5 3 -8 8 -8 6 0 10 -6 10 -12 1 -7 14 -24 30 -38 30
-24 41 -72 20 -85 -6 -4 -7 -12 -3 -18 12 -19 13 -46 3 -52 -6 -4 -8 -11 -5
-16 4 -5 1 -9 -6 -9 -8 0 -7 -5 2 -17 8 -9 9 -14 3 -10 -7 4 -15 0 -18 -9 -3
-8 -2 -12 3 -9 5 3 3 -8 -5 -25 -9 -16 -13 -34 -9 -40 3 -5 2 -10 -3 -10 -6 0
-9 -15 -8 -34 1 -19 -3 -32 -8 -28 -5 3 -7 -2 -3 -10 3 -9 3 -19 -1 -22 -3 -4
-7 -14 -9 -24 -6 -31 -8 -37 -17 -51 -7 -11 -6 -12 5 -6 11 7 12 6 3 -6 -14
-19 -12 -75 3 -72 13 3 10 -47 -3 -68 -4 -8 -3 -9 4 -5 9 5 11 -3 10 -28 -2
-20 -6 -36 -9 -36 -3 0 -5 -11 -4 -25 2 -14 -1 -28 -6 -31 -6 -3 -5 -11 2 -20
9 -11 9 -14 -1 -14 -9 0 -9 -4 -2 -12 5 -7 8 -23 6 -35 -2 -13 1 -23 7 -23 8
0 8 -4 0 -13 -8 -10 -7 -17 1 -25 8 -8 9 -12 1 -12 -6 0 -14 -7 -17 -16 -6
-15 -4 -15 10 -3 16 13 16 12 6 -7 -6 -11 -7 -26 -3 -33 12 -19 3 -153 -11
-167 -4 -3 -4 -13 -1 -22 5 -11 3 -13 -6 -7 -10 5 -11 2 -7 -13 4 -12 2 -23
-5 -28 -8 -5 -9 -3 -4 6 6 9 4 11 -4 5 -9 -5 -10 -10 -2 -18 7 -7 4 -16 -10
-28 -12 -10 -16 -20 -10 -24 7 -4 5 -15 -5 -31 -9 -13 -14 -24 -11 -24 3 0 1
-16 -3 -35 -6 -25 -5 -33 4 -28 6 3 3 -3 -8 -15 -10 -12 -16 -28 -12 -37 4
-11 2 -14 -6 -9 -7 5 -9 2 -5 -9 3 -9 1 -18 -6 -21 -9 -3 -9 -5 1 -5 6 -1 12
-10 12 -21 0 -13 5 -18 15 -14 8 4 13 10 10 14 -3 5 0 12 6 15 5 4 10 21 9 39
-3 47 -1 58 9 52 5 -4 7 3 4 14 -3 12 0 20 8 20 7 0 9 3 6 7 -4 3 -1 13 6 21
10 13 9 14 -2 7 -10 -5 -12 -4 -7 3 4 7 13 12 21 12 8 0 11 7 8 19 -3 10 1 22
8 26 8 6 10 4 4 -5 -5 -8 -4 -11 3 -7 5 4 8 17 4 29 -3 14 -1 19 6 14 6 -3 13
-2 17 4 3 5 0 10 -7 10 -8 0 -9 3 -3 8 6 4 15 17 22 29 10 17 10 23 0 26 -9 4
-9 6 1 6 6 1 12 12 12 25 0 32 14 40 35 20 15 -15 17 -15 22 5 3 11 9 18 14
15 5 -3 6 2 3 10 -3 9 -2 16 3 16 5 0 9 8 10 18 3 43 8 62 16 62 4 0 5 5 2 10
-4 6 -1 17 5 25 7 8 9 15 4 15 -4 0 1 6 11 14 11 8 24 12 29 9 5 -4 6 -1 2 5
-4 7 -2 12 4 12 6 0 8 4 5 10 -3 5 0 10 7 10 9 0 9 3 -2 10 -10 6 -11 10 -2
10 6 0 12 7 12 16 0 9 8 23 18 30 16 13 16 14 -3 7 -19 -6 -19 -5 -4 13 9 10
14 25 12 32 -3 6 0 12 7 12 6 0 9 4 6 9 -9 15 5 42 18 34 6 -4 5 1 -3 10 -11
14 -11 20 0 34 12 15 12 16 -1 8 -13 -8 -13 -7 -1 8 9 12 10 17 2 17 -9 0 -9
5 0 21 9 17 8 20 -2 14 -8 -6 -11 -4 -6 7 3 9 0 21 -6 28 -9 10 -9 11 3 5 12
-7 13 -6 3 7 -7 8 -10 18 -6 21 3 4 1 7 -6 7 -9 0 -9 5 0 21 8 15 8 19 0 15
-6 -4 -11 -2 -11 3 0 6 4 11 9 11 5 0 8 13 7 29 -1 17 2 28 6 25 4 -3 8 2 8
10 0 8 5 27 12 43 6 15 10 32 9 37 -1 5 3 12 8 16 6 3 12 17 14 30 3 16 11 24
21 24 9 -1 13 2 10 7 -3 5 0 9 5 9 6 0 11 -5 11 -11 0 -5 5 -7 10 -4 6 4 18 1
27 -7 14 -11 15 -11 9 0 -7 11 -4 11 13 0 12 -7 21 -16 21 -21 0 -4 13 -21 30
-37 17 -16 30 -34 30 -40 0 -5 5 -10 10 -10 6 0 10 -7 10 -17 0 -9 3 -14 6
-10 8 7 34 -17 34 -32 0 -10 14 -15 33 -12 4 0 7 -6 7 -15 0 -8 5 -12 10 -9 6
3 10 1 10 -5 0 -7 6 -10 14 -7 10 4 13 -1 11 -18 -1 -13 3 -23 9 -22 6 1 10
-4 9 -10 -2 -7 1 -13 7 -13 5 0 25 -16 44 -35 20 -19 40 -35 45 -35 5 0 11 -7
15 -15 3 -8 12 -12 20 -9 8 3 17 1 20 -5 4 -6 13 -8 21 -5 9 4 18 -1 21 -11 5
-13 9 -14 15 -3 7 10 9 9 9 -4 0 -10 5 -18 11 -18 5 0 8 -4 5 -9 -3 -5 10 -22
29 -38 19 -17 32 -33 28 -36 -3 -4 1 -7 10 -7 10 0 17 -5 17 -11 0 -5 5 -7 12
-3 7 5 9 2 6 -7 -3 -8 4 -23 15 -34 12 -12 17 -14 13 -5 -4 8 -1 6 6 -4 7 -11
20 -27 30 -37 9 -9 14 -20 10 -23 -3 -4 3 -12 13 -20 10 -7 15 -18 12 -23 -4
-6 2 -13 13 -16 11 -3 20 0 20 6 0 7 5 5 10 -3 9 -13 10 -13 10 0 0 13 2 13 9
1 5 -8 16 -11 25 -8 9 4 16 1 17 -6 0 -7 2 -22 3 -34 1 -12 -1 -20 -5 -17 -4
2 -13 -2 -21 -9 -30 -29 -76 -56 -84 -49 -5 4 -6 3 -2 -2 8 -9 -29 -53 -38
-44 -9 9 -51 -36 -46 -50 3 -7 0 -12 -6 -10 -13 4 -53 -42 -46 -53 3 -5 -2 -9
-11 -9 -9 0 -13 -4 -10 -10 3 -6 1 -10 -4 -10 -6 0 -10 -3 -9 -8 4 -11 -86
-102 -100 -102 -7 0 -12 -5 -12 -11 0 -5 -4 -7 -10 -4 -5 3 -10 -2 -10 -12 0
-10 -18 -33 -40 -52 -22 -18 -53 -47 -70 -62 -16 -16 -35 -29 -42 -29 -6 0 -9
-3 -5 -6 7 -8 -17 -34 -32 -34 -6 0 -10 -3 -10 -7 4 -22 -3 -32 -16 -27 -8 4
-15 1 -15 -7 0 -7 -3 -10 -6 -6 -3 3 -19 -8 -36 -25 -17 -18 -35 -27 -44 -24
-9 4 -12 2 -8 -5 5 -8 -7 -10 -40 -6 -32 4 -46 2 -46 -6 0 -7 -4 -6 -10 3 -7
11 -10 11 -10 2 0 -7 -4 -11 -9 -7 -6 3 -15 -4 -21 -15 -11 -20 -3 -26 24 -21
5 1 3 -6 -5 -15 -12 -16 -12 -17 3 -11 11 4 22 0 30 -11 16 -20 55 -27 74 -11
7 6 18 8 24 4 5 -3 10 -2 10 3 0 5 11 14 25 20 21 10 25 9 25 -3 0 -8 -5 -15
-11 -15 -5 0 -8 -4 -5 -8 3 -5 -1 -20 -8 -34 -7 -14 -16 -41 -20 -62 -4 -20
-11 -34 -16 -31 -5 3 -7 -4 -5 -15 3 -14 -1 -20 -13 -20 -15 0 -15 -2 -2 -10
10 -6 11 -10 3 -10 -7 0 -13 -7 -13 -15 0 -8 -4 -15 -10 -15 -5 0 -6 -7 -3
-17 4 -11 3 -14 -5 -9 -8 4 -12 0 -12 -11 0 -10 -3 -29 -7 -42 -5 -19 -3 -22
8 -16 11 7 11 4 -1 -11 -28 -36 -41 -65 -34 -77 4 -7 4 -9 -1 -5 -4 4 -15 2
-23 -5 -13 -9 -14 -9 -8 1 4 6 3 12 -3 12 -5 0 -13 -5 -16 -10 -5 -8 -11 -8
-20 0 -8 7 -15 7 -19 1 -3 -5 -17 -8 -31 -6 -14 1 -25 -2 -25 -7 0 -5 -4 -7
-9 -4 -5 3 -12 -1 -15 -10 -5 -13 -9 -14 -21 -4 -12 10 -15 10 -15 0 0 -8 -3
-10 -7 -7 -3 4 -15 -1 -26 -10 -11 -10 -18 -13 -14 -7 3 6 0 11 -8 11 -8 0
-13 -3 -12 -6 1 -3 -2 -8 -8 -9 -5 -2 -18 -8 -29 -14 -13 -7 -16 -7 -12 1 9
15 2 14 -40 -4 -20 -8 -33 -18 -30 -23 6 -10 36 -9 54 2 7 4 12 2 12 -4 0 -7
6 -10 14 -7 7 3 18 1 24 -5 6 -6 12 -6 17 3 6 8 4 10 -5 4 -9 -5 -11 -4 -6 4
6 9 11 9 23 -1 9 -7 21 -13 27 -13 6 -1 22 -6 36 -12 30 -13 68 -10 101 7 17
10 24 10 27 1 2 -6 11 -11 20 -11 15 0 15 -2 2 -10 -13 -9 -13 -10 0 -10 9 0
11 -3 5 -8 -5 -4 -10 -16 -9 -27 0 -11 -2 -24 -5 -30 -3 -5 -6 -12 -6 -15 -3
-21 -18 -50 -26 -50 -6 0 -7 -5 -4 -10 3 -6 3 -16 -2 -22 -4 -7 -9 -22 -10
-33 -3 -19 -2 -19 11 -3 7 10 17 14 21 10 4 -4 6 3 3 15 -3 12 -3 22 1 21 18
-2 32 3 27 11 -7 11 41 44 53 36 5 -3 7 4 4 15 -3 11 0 20 6 20 6 0 11 6 11
14 0 8 8 21 19 28 10 7 21 23 25 35 9 29 37 38 53 17 8 -11 13 -13 13 -5 0 7
5 9 10 6 6 -4 17 -2 24 4 10 8 17 7 27 -6 12 -15 12 -16 -1 -8 -12 6 -12 5 -3
-5 14 -15 6 -42 -11 -34 -6 3 -2 -2 8 -10 13 -10 15 -16 7 -16 -11 0 -11 -3 0
-17 11 -13 11 -15 1 -9 -11 7 -11 4 -1 -12 7 -12 18 -18 24 -14 5 3 4 -2 -4
-11 -7 -9 -10 -17 -5 -17 5 0 3 -4 -5 -9 -13 -8 -13 -12 0 -27 11 -14 11 -16
0 -10 -8 6 -7 0 4 -18 12 -18 14 -26 5 -26 -10 0 -10 -3 0 -15 10 -12 10 -15
0 -15 -9 0 -10 -3 -1 -13 8 -10 7 -17 -1 -25 -8 -8 -8 -15 2 -27 22 -27 29
-19 31 38 0 9 7 17 15 17 8 0 13 4 10 9 -3 5 2 12 11 15 15 6 15 8 3 16 -11 7
-12 10 -2 10 7 0 11 4 8 9 -4 5 0 12 6 14 10 4 10 6 0 6 -9 1 -7 7 6 21 10 11
20 37 21 58 1 20 3 46 5 57 2 11 -1 28 -6 37 -6 12 -5 18 2 18 6 0 9 4 6 9 -3
4 5 7 19 6 13 -2 26 3 29 12 4 8 11 11 18 6 23 -14 37 -12 31 5 -4 10 -2 13 5
8 7 -4 12 -1 12 8 0 9 -3 15 -7 15 -23 -4 -42 3 -47 17 -4 10 -2 13 7 9 6 -4
0 3 -16 15 -15 12 -25 26 -21 31 3 5 -1 9 -8 9 -9 0 -9 3 2 10 11 7 11 10 2
10 -8 0 -10 5 -5 13 12 18 11 167 -1 167 -5 0 -1 7 10 16 10 8 12 13 4 9 -9
-4 -8 -1 3 8 13 11 15 17 7 22 -9 6 -9 10 1 16 12 7 12 9 0 9 -10 0 -11 3 -2
14 8 9 8 16 2 20 -7 5 -7 15 -1 31 5 14 6 25 1 25 -4 0 -7 10 -5 23 1 12 3 26
3 30 1 5 6 5 13 1 7 -5 9 -2 5 8 -3 9 0 21 6 28 9 10 9 14 -1 17 -10 4 -9 10
5 26 10 11 12 17 4 12 -9 -5 -8 1 4 18 9 15 25 29 36 32 10 4 19 12 19 19 0 7
7 13 15 14 8 1 22 3 30 4 9 1 14 6 12 12 -5 13 12 29 33 34 8 2 22 10 30 19
13 14 13 15 0 8 -9 -5 -12 -4 -7 1 5 5 12 9 15 10 26 4 71 28 76 40 3 9 10 13
15 10 5 -3 12 1 15 10 4 9 13 14 21 10 8 -3 15 -1 15 5 0 6 4 8 9 5 5 -3 12 2
15 11 5 12 9 14 18 5 15 -15 31 -15 22 0 -4 7 -3 8 5 4 6 -4 9 -12 6 -17 -4
-5 -1 -9 6 -9 9 0 9 -4 -1 -15 -6 -8 -9 -19 -5 -25 3 -5 2 -10 -4 -10 -6 0 -8
-6 -5 -14 3 -7 -1 -20 -8 -27 -7 -8 -13 -24 -12 -37 1 -12 -3 -22 -7 -22 -5 0
-9 -8 -9 -17 0 -15 -2 -16 -10 -3 -13 21 -13 3 1 -22 9 -16 8 -19 -2 -13 -9 6
-11 2 -7 -13 4 -13 0 -23 -10 -27 -14 -5 -14 -7 -2 -15 8 -6 10 -10 4 -10 -7
0 -11 -14 -10 -34 1 -19 -2 -32 -5 -30 -4 2 -10 -3 -13 -12 -3 -8 -2 -12 4 -9
6 3 10 -2 10 -11 0 -16 1 -16 18 -1 10 10 21 15 23 13 3 -3 4 7 3 22 0 14 8
35 18 46 10 11 18 28 18 38 0 10 3 18 8 18 4 0 13 9 20 21 11 17 11 20 0 13
-10 -6 -10 -4 1 9 7 9 10 17 6 17 -5 0 2 9 15 20 13 11 20 20 16 20 -15 0 26
60 49 72 13 7 25 17 27 23 2 5 7 9 11 7 5 -1 6 2 2 8 -3 5 4 20 16 32 12 13
19 17 15 11 -4 -7 -3 -13 2 -13 5 0 12 9 15 21 4 13 10 18 18 13 8 -4 10 -3 5
5 -4 6 -2 18 4 26 7 8 9 15 6 15 -4 0 0 7 9 16 9 9 14 23 11 30 -3 7 3 18 12
23 9 6 12 11 6 11 -6 0 -11 7 -11 15 0 10 4 12 12 5 7 -5 15 -7 18 -3 4 3 7 1
7 -6 0 -7 5 -9 10 -6 6 3 10 -1 10 -10 0 -20 25 -46 35 -37 5 4 5 -1 2 -10 -4
-12 2 -21 24 -30 17 -8 27 -18 24 -26 -3 -7 0 -10 5 -7 17 10 11 -7 -7 -22
-10 -8 -12 -12 -5 -8 6 3 12 2 12 -4 0 -6 7 -7 17 -4 12 5 14 3 8 -7 -6 -10
-4 -10 10 -2 14 7 22 6 33 -4 17 -17 38 -8 23 10 -6 7 -7 17 -3 21 4 5 2 5 -4
2 -7 -4 -15 0 -18 9 -4 10 -2 13 7 9 6 -4 -3 6 -21 22 -30 26 -73 91 -52 78 6
-3 7 1 4 9 -3 9 -11 14 -17 13 -7 -1 -11 4 -9 11 1 8 -2 11 -8 7 -5 -3 -14 5
-20 19 -5 14 -15 26 -22 26 -9 0 -8 3 2 10 13 9 13 10 0 10 -12 1 -12 3 2 14
10 7 15 15 12 18 -3 3 8 12 25 19 16 7 27 17 25 21 -3 4 -1 8 4 8 5 0 12 9 15
21 4 14 10 18 19 13 10 -6 9 -3 -1 10 -12 15 -12 17 0 14 8 -2 13 3 12 10 -2
6 2 12 7 12 6 0 10 5 10 11 0 6 11 20 26 31 14 11 23 22 20 25 -3 3 25 35 62
71 37 36 60 62 52 57 -8 -4 -5 2 8 14 12 12 20 27 16 32 -3 5 0 8 8 7 7 -2 12
3 11 10 -2 6 3 12 11 12 8 0 22 10 30 22 9 12 16 18 16 13 0 -6 3 -6 8 0 4 6
23 22 42 35 19 13 39 30 43 37 4 7 14 13 21 13 8 0 17 7 20 16 3 8 10 12 16 9
5 -3 10 -1 10 5 0 6 4 8 10 5 6 -3 7 1 4 10 -4 9 -3 15 2 13 13 -4 55 28 47
35 -3 4 -1 7 5 7 6 0 9 9 7 20 -2 11 0 18 6 15 5 -4 9 -2 9 4 0 6 11 16 24 23
14 7 26 18 28 23 2 6 7 9 11 7 5 -1 6 2 2 7 -7 12 25 30 43 24 6 -3 12 -11 12
-19 0 -9 5 -12 10 -9 6 3 10 2 10 -3 0 -5 20 -8 45 -7 32 2 43 0 39 -8 -5 -9
-3 -9 6 0 7 6 19 9 28 6 10 -4 13 -2 8 5 -5 8 3 14 23 18 16 4 32 13 35 21 3
8 10 11 16 8 6 -3 13 1 16 9 7 18 64 49 64 35 0 -6 5 -7 10 -4 6 3 10 1 10 -5
0 -6 5 -8 10 -5 6 3 10 0 10 -8 0 -8 7 -18 16 -21 10 -4 13 -2 8 7 -5 8 -2 7
9 -2 19 -15 23 -36 5 -25 -7 5 -8 3 -3 -6 11 -18 13 -60 3 -54 -4 3 -8 -3 -9
-13 0 -10 -3 -27 -6 -38 -7 -30 -4 -68 7 -79 6 -6 5 -16 -1 -29 -9 -15 -8 -18
2 -12 9 6 11 3 6 -9 -4 -10 -7 -20 -7 -22 0 -3 -4 -3 -9 0 -5 4 -7 -3 -4 -14
3 -11 1 -20 -5 -20 -6 0 -9 -9 -7 -20 2 -11 -1 -20 -7 -20 -7 0 -6 -6 2 -15 7
-8 8 -15 3 -15 -6 0 -9 -12 -7 -27 1 -15 -2 -33 -7 -40 -6 -7 -8 -17 -4 -23 3
-5 2 -10 -3 -10 -6 0 -13 -7 -16 -16 -4 -10 -2 -13 7 -8 9 6 9 5 0 -8 -7 -8
-10 -18 -6 -21 3 -4 1 -7 -6 -7 -7 0 -10 -4 -6 -9 3 -6 -3 -25 -14 -44 -11
-19 -17 -38 -14 -41 4 -3 1 -6 -5 -6 -6 0 -9 -9 -7 -20 2 -11 1 -20 -3 -20 -7
0 -11 -16 -14 -57 -1 -7 -4 -13 -8 -13 -15 0 -6 -28 13 -39 10 -7 17 -8 14 -4
-3 5 2 15 13 23 10 7 16 19 13 26 -3 8 3 17 12 20 13 5 14 9 3 15 -10 7 -8 9
6 9 16 0 17 2 5 17 -12 14 -12 16 0 8 11 -6 13 -4 8 8 -3 9 0 18 9 21 8 3 14
15 14 26 0 11 5 20 12 20 6 0 9 3 5 6 -3 4 1 13 9 21 8 9 13 22 10 29 -3 8 -1
14 4 14 6 0 9 3 9 8 -1 4 0 10 1 15 4 12 7 26 9 38 0 5 5 8 9 5 5 -3 8 5 8 17
-1 13 6 23 16 25 12 2 16 -1 13 -10 -3 -8 3 -13 19 -13 13 0 22 5 19 11 -2 7
0 15 6 18 6 4 8 13 4 21 -3 10 1 15 13 15 12 0 15 3 8 8 -13 8 -14 42 -2 42 5
0 6 5 3 10 -3 6 1 13 9 16 9 3 14 9 11 13 -5 10 43 61 58 61 8 0 8 3 -1 9 -11
7 -11 9 2 14 9 4 16 16 16 27 0 12 4 19 9 16 5 -3 8 11 6 32 -1 24 3 42 14 50
9 8 10 11 4 7 -18 -9 -16 3 2 22 8 8 13 19 10 24 -4 5 -1 9 5 9 6 0 9 4 5 9
-7 12 29 33 39 24 3 -3 6 1 6 11 0 9 5 14 10 11 6 -3 10 -1 10 5 0 7 6 8 19 1
10 -6 21 -8 24 -5 3 3 3 -4 0 -17 -4 -16 -3 -20 6 -15 7 5 20 1 31 -9 17 -15
19 -15 28 2 6 10 14 15 18 11 3 -4 16 -3 27 3 15 9 18 8 11 -3 -6 -11 -5 -11
8 0 13 10 17 10 21 0 3 -8 6 -6 6 5 1 15 4 16 22 7 11 -7 18 -17 16 -25 -3 -7
0 -18 6 -25 9 -10 9 -11 -1 -5 -11 5 -13 -1 -11 -26 2 -19 8 -40 13 -48 8 -11
8 -13 -1 -8 -8 5 -11 -11 -11 -55 1 -70 -2 -90 -17 -100 -6 -5 -6 -8 2 -8 13
0 12 -18 -1 -39 -6 -10 -5 -12 2 -7 7 4 12 1 12 -8 0 -15 12 -21 33 -17 5 1 5
-4 1 -11 -12 -19 -14 -39 -3 -32 5 3 9 -2 9 -11 0 -10 -5 -13 -12 -9 -9 5 -9
3 1 -9 7 -9 11 -26 8 -37 -3 -11 -2 -18 2 -16 4 3 7 -4 7 -14 0 -10 -4 -16 -8
-13 -5 2 -7 -7 -4 -21 2 -14 -1 -27 -7 -30 -9 -3 -9 -5 0 -5 7 -1 10 -8 7 -16
-4 -8 -11 -12 -18 -8 -8 5 -8 3 -1 -8 6 -8 10 -31 10 -51 -1 -20 3 -34 8 -31
4 3 8 -1 6 -8 -3 -29 1 -40 14 -33 8 5 8 2 -2 -9 -10 -12 -10 -17 -1 -17 6 0
10 -6 7 -12 -2 -7 0 -21 5 -30 6 -12 5 -18 -3 -18 -8 0 -8 -4 1 -15 10 -12 9
-15 -6 -16 -11 0 -14 -3 -6 -6 6 -2 12 -9 12 -14 0 -6 -5 -7 -12 -3 -7 4 -8 3
-4 -4 4 -6 9 -39 11 -71 2 -33 6 -65 10 -71 3 -5 0 -10 -7 -10 -10 0 -10 -2 1
-9 8 -5 9 -10 3 -12 -6 -2 -13 -22 -15 -44 -3 -22 -9 -49 -13 -59 -5 -14 -4
-17 4 -12 7 4 12 2 12 -3 0 -6 -4 -11 -9 -11 -5 0 -8 -8 -6 -17 1 -10 -2 -26
-7 -35 -6 -12 -5 -18 3 -18 8 0 9 -4 0 -13 -6 -8 -7 -18 -3 -22 4 -5 2 -5 -5
-1 -6 3 -13 -1 -16 -11 -4 -16 -5 -16 -6 1 -1 12 -6 16 -17 12 -9 -3 -18 -6
-20 -6 -3 0 -2 -6 2 -13 5 -9 4 -9 -5 -1 -7 6 -30 9 -52 7 -23 -2 -38 0 -35 5
3 5 -1 9 -9 9 -8 0 -12 -4 -10 -8 3 -3 -4 -9 -15 -12 -11 -3 -20 0 -20 6 0 8
-4 7 -9 -2 -7 -11 -9 -11 -13 0 -4 12 -8 12 -22 0 -13 -11 -16 -11 -14 -1 2 7
-3 15 -11 18 -9 3 -11 0 -6 -9 6 -11 5 -11 -5 -2 -9 9 -22 6 -55 -12 -40 -21
-45 -21 -61 -6 -11 11 -14 11 -9 2 6 -11 4 -13 -7 -8 -11 4 -18 -1 -22 -16 -3
-12 -3 -23 -1 -26 3 -2 5 1 5 7 0 7 5 12 11 12 5 0 7 -4 4 -10 -3 -5 1 -10 10
-10 10 0 13 5 9 12 -4 7 -3 10 1 5 5 -4 10 -18 12 -30 2 -12 9 -24 15 -26 7
-2 22 -14 35 -27 13 -13 23 -20 23 -17 0 3 10 -2 22 -13 14 -13 19 -14 14 -4
-6 13 -6 13 6 0 15 -17 32 -20 45 -6 5 5 2 6 -6 1 -8 -5 -12 -4 -8 1 6 11 47
11 65 0 8 -4 11 -3 10 5 -2 6 3 14 11 17 10 3 11 0 5 -9 -7 -12 -5 -12 9 0 9
7 17 10 17 7 0 -4 10 -1 23 5 19 10 20 10 11 -2 -6 -8 -10 -22 -9 -31 2 -10
-2 -16 -8 -15 -7 1 -11 -4 -10 -10 2 -7 -2 -13 -8 -13 -5 0 -7 -5 -3 -12 5 -8
2 -9 -10 -5 -9 4 -15 3 -12 -2 3 -5 -5 -20 -18 -34 -13 -14 -21 -28 -18 -31 3
-3 -2 -6 -11 -6 -9 0 -17 -7 -17 -15 0 -8 -5 -15 -10 -15 -6 0 -15 -12 -20
-26 -6 -14 -14 -23 -19 -19 -5 3 -12 -4 -16 -14 -3 -11 -15 -23 -26 -26 -10
-4 -17 -10 -14 -15 3 -5 2 -10 -2 -12 -5 -1 -25 -29 -47 -60 -21 -32 -42 -58
-47 -58 -5 0 -14 -11 -21 -25 -6 -13 -15 -22 -19 -19 -5 3 -9 -2 -9 -10 0 -9
-5 -16 -11 -16 -5 0 -7 -4 -4 -10 3 -5 2 -10 -3 -10 -6 0 -8 -9 -5 -20 3 -12
0 -20 -7 -20 -7 0 -10 -6 -8 -12 3 -7 -4 -21 -14 -31 -10 -9 -18 -14 -18 -10
0 4 -5 2 -11 -4 -6 -6 -18 -9 -25 -6 -8 3 -14 0 -14 -6 0 -6 -7 -8 -15 -5 -9
4 -15 0 -15 -7 0 -11 -2 -11 -9 0 -8 12 -12 12 -25 2 -21 -18 -20 -34 2 -27 9
3 24 1 32 -4 13 -9 13 -11 0 -19 -8 -5 -18 -7 -24 -4 -5 3 -6 1 -2 -5 3 -5 1
-12 -6 -14 -8 -3 -8 -9 0 -24 6 -10 12 -13 12 -7 0 7 6 12 13 10 6 -1 11 3 10
10 -2 7 3 10 11 7 11 -4 11 -10 2 -30 -6 -13 -14 -24 -18 -24 -5 0 -8 -4 -8
-9 0 -10 14 -9 42 4 10 4 15 12 11 19 -4 6 2 4 12 -4 11 -9 16 -10 11 -3 -5 9
0 12 18 11 15 -1 26 -6 26 -10 0 -4 9 -8 21 -8 13 0 18 -4 13 -12 -6 -10 -4
-10 7 0 17 16 42 16 34 0 -4 -7 -1 -6 7 2 7 8 29 15 48 15 45 -1 62 4 53 18
-4 6 0 8 9 4 9 -3 21 0 28 6 10 9 11 9 6 0 -8 -15 10 -18 19 -3 4 6 13 7 23 1
11 -6 24 -6 35 1 10 5 25 7 33 4 8 -3 14 -1 14 5 0 6 5 7 10 4 6 -4 17 -2 23
4 7 5 22 10 32 10 79 1 114 5 109 12 -5 8 18 14 40 10 4 -1 14 3 20 9 7 5 16
7 19 3 4 -3 7 0 7 7 0 9 5 8 13 -5 10 -13 16 -15 21 -6 5 8 12 9 19 3 24 -19
72 -23 92 -7 16 12 17 14 3 9 -11 -4 -18 -1 -18 6 0 6 -4 9 -8 6 -5 -3 -20 1
-35 9 -15 8 -27 11 -27 7 0 -4 -5 1 -11 11 -6 9 -15 15 -20 11 -5 -3 -8 -2 -7
3 2 4 -1 10 -7 11 -5 2 -16 9 -24 15 -12 10 -13 9 -7 -2 6 -8 -1 -7 -18 4 -15
10 -29 15 -33 11 -3 -3 -13 0 -21 7 -13 9 -14 9 -8 0 4 -7 2 -13 -3 -13 -6 0
-11 6 -11 13 0 8 -3 9 -8 1 -4 -6 -15 -10 -24 -8 -10 1 -18 -2 -18 -7 0 -4 -7
-5 -17 -2 -10 4 -14 2 -9 -5 3 -6 -7 -4 -24 4 -16 9 -34 13 -40 9 -5 -3 -10
-1 -10 6 0 8 -4 8 -15 -1 -8 -7 -26 -10 -40 -8 -14 3 -25 1 -25 -3 0 -5 -7 -5
-17 -2 -9 4 -14 2 -11 -3 4 -5 -5 -10 -18 -10 -13 -1 -24 3 -24 10 0 6 -5 4
-10 -4 -7 -11 -10 -12 -10 -2 0 9 -7 11 -22 7 -13 -3 -18 -3 -13 2 6 4 12 19
13 33 0 13 9 31 19 38 10 7 17 18 15 24 -2 7 5 5 15 -2 10 -8 15 -11 11 -6 -8
10 15 36 31 36 6 0 19 13 30 30 10 16 21 27 24 23 4 -3 7 -1 7 6 0 6 14 25 30
41 17 17 28 30 24 30 -4 0 6 11 22 25 16 14 35 25 42 25 6 0 12 5 12 10 0 25
46 74 61 65 5 -4 9 1 9 9 0 9 6 15 13 13 6 -1 11 4 10 10 -2 7 0 12 5 10 10
-3 52 40 44 47 -3 3 2 6 11 6 10 0 14 6 11 14 -3 8 0 17 5 21 6 3 9 11 5 16
-3 5 0 8 7 7 7 -2 14 4 14 12 0 8 7 14 14 12 8 -2 11 3 8 12 -4 9 -2 15 2 13
5 -1 21 11 35 26 16 17 33 27 42 23 10 -4 13 -2 8 6 -5 8 -2 9 9 5 10 -3 17
-3 17 2 0 4 6 8 13 9 12 1 47 9 57 12 3 1 8 2 11 2 3 -1 6 5 6 11 0 18 -69 15
-85 -3 -8 -8 -11 -9 -7 -2 3 6 1 12 -4 12 -6 0 -11 -6 -11 -12 0 -7 -5 -5 -11
5 -5 9 -7 22 -3 29 4 7 3 8 -4 4 -7 -4 -12 -2 -12 5 0 9 -3 9 -14 0 -10 -8
-16 -9 -21 -1 -3 6 -10 8 -15 5 -10 -6 -8 15 3 33 10 15 -11 16 -33 2 -11 -7
-12 -10 -2 -10 8 0 12 -6 10 -12 -6 -17 -72 -17 -94 -1 -17 12 -17 13 0 13 9
0 15 4 12 9 -4 5 0 12 6 14 10 4 9 8 -2 16 -10 7 -11 11 -3 11 7 0 12 3 12 8
-4 23 2 52 10 48 5 -3 7 8 6 24 -1 17 2 30 9 30 6 0 4 5 -4 10 -12 8 -12 10 5
11 11 0 14 3 8 6 -7 2 -13 11 -13 19 0 10 5 12 13 8 9 -6 9 -5 0 8 -7 8 -10
18 -7 21 6 6 9 20 14 77 1 14 4 19 7 13 2 -7 13 -13 23 -13 20 0 43 23 33 33
-9 9 -10 76 -1 71 5 -3 8 5 7 18 -1 46 9 110 18 117 7 5 37 84 38 101 0 3 3
10 6 15 4 6 7 30 7 55 0 25 1 50 2 55 1 6 1 12 0 15 -6 16 -6 50 1 50 4 0 4
14 -1 31 -7 24 -6 28 3 21 9 -8 12 -4 13 14 1 13 -2 24 -6 24 -5 0 -8 9 -7 19
0 11 5 17 9 15 4 -3 7 6 6 20 -1 15 -6 26 -11 26 -5 0 -4 7 3 15 10 12 10 15
0 15 -10 0 -10 3 0 15 9 11 9 15 1 15 -7 0 -9 5 -6 10 3 6 2 10 -4 10 -6 0 -8
7 -5 15 4 9 0 15 -7 15 -11 0 -11 3 1 10 10 6 11 10 3 10 -7 0 -13 8 -13 18 0
10 6 24 13 31 10 11 9 12 -2 6 -10 -6 -9 0 4 22 9 16 30 34 46 40 16 6 27 8
24 3 -3 -4 6 -7 20 -6 14 0 25 4 25 7 0 3 15 5 34 4 19 -1 34 1 33 4 -1 3 11
20 27 36 16 17 26 24 22 17 -10 -18 26 -10 55 11 13 10 17 15 10 11 -9 -5 -5
7 9 27 13 19 17 29 9 22 -8 -6 -24 -10 -34 -8 -11 2 -26 4 -33 4 -7 1 -10 5
-7 11 6 9 -8 14 -27 11 -8 -1 -12 15 -9 32 0 4 -2 6 -6 5 -5 -2 -9 1 -10 7 -1
5 -11 13 -23 17 -12 4 -19 12 -15 17 3 5 1 12 -4 16 -5 3 -8 14 -6 25 2 11 -1
20 -7 20 -5 0 -8 7 -5 15 4 8 1 17 -5 21 -7 5 -8 2 -4 -7 4 -8 0 -5 -8 5 -9
11 -16 16 -16 11 0 -4 -11 5 -25 21 -23 27 -23 29 -7 48 9 11 12 17 6 13 -14
-8 -14 161 0 182 7 10 6 12 -4 6 -8 -5 -11 -3 -8 6 3 8 11 13 18 11 10 -2 10
1 4 10 -12 15 -12 68 -1 86 5 7 3 12 -5 12 -9 0 -9 3 2 10 10 7 11 10 2 10 -8
0 -11 9 -8 26 3 15 0 36 -5 47 -7 12 -7 17 -1 13 5 -3 12 1 15 9 4 9 1 12 -8
9 -10 -4 -13 2 -10 25 3 20 0 31 -8 31 -8 0 -8 3 -2 8 15 10 18 55 3 46 -7 -5
-8 -3 -3 7 12 19 14 49 3 49 -5 0 -4 9 2 19 7 14 7 22 -1 27 -6 3 -9 14 -6 24
2 9 0 25 -5 34 -6 11 -5 16 4 16 10 0 10 2 0 9 -11 6 -10 10 3 15 10 3 15 12
11 21 -3 10 1 15 12 16 9 0 12 3 5 5 -8 4 -8 12 2 31 7 14 11 32 8 41 -5 11
-3 13 7 7 8 -5 11 -4 7 2 -3 5 -9 23 -11 39 -9 47 -14 68 -21 89 -6 17 -5 18
5 5 10 -13 11 -12 4 5 -12 34 -13 189 0 204 9 12 8 13 -3 7 -10 -7 -12 -3 -6
14 6 17 4 21 -6 14 -12 -6 -12 -5 0 9 7 9 10 17 6 17 -4 0 -1 8 6 17 12 15 12
16 -1 8 -12 -7 -13 -6 -3 7 7 8 10 18 6 21 -3 4 0 7 7 7 7 0 10 3 7 7 -4 3 0
17 9 31 9 13 11 21 5 18 -6 -4 -11 -3 -11 3 0 5 5 13 11 16 7 5 4 14 -8 28
-10 11 -12 17 -5 13 12 -7 14 1 15 57 0 15 3 27 6 27 3 0 6 11 6 25 0 14 -4
25 -9 25 -5 0 -3 7 4 15 10 12 10 15 -1 15 -9 0 -10 3 -4 8 12 8 13 42 2 60
-5 6 -4 12 1 12 5 0 9 7 9 15 0 8 -3 12 -7 10 -6 -4 -12 42 -11 88 0 9 -4 17
-9 17 -6 0 -6 10 0 25 5 14 6 25 2 25 -10 0 -8 62 2 78 4 7 3 12 -2 12 -5 0
-8 11 -7 25 2 14 -2 25 -8 25 -5 0 -8 3 -4 6 3 3 2 17 -3 30 -6 14 -6 24 0 24
5 0 7 12 4 26 -3 19 -1 24 8 18 10 -6 10 -5 2 7 -6 8 -11 26 -10 42 1 15 -1
27 -5 27 -9 0 -6 62 4 77 4 6 3 15 -3 18 -7 4 -8 11 -1 18 6 8 2 21 -14 40
-29 32 -27 32 -43 7z m-3463 -901 c-7 -4 -17 -5 -22 -2 -5 3 -3 9 4 14 7 4 17
5 22 2 5 -3 3 -9 -4 -14z m0 -20 c-8 -5 -9 -9 -4 -9 6 0 3 -5 -5 -10 -11 -7
-11 -10 -2 -10 7 0 10 -5 6 -12 -4 -7 -3 -8 5 -4 6 4 18 3 26 -4 9 -7 15 -8
20 0 3 5 17 8 31 6 13 -3 24 -1 24 3 0 5 15 7 33 6 22 -1 38 5 50 19 10 12 16
15 12 9 -3 -7 -1 -13 4 -13 6 0 11 -7 11 -15 0 -8 5 -15 11 -15 5 0 7 -5 3
-12 -5 -8 -2 -9 11 -5 9 4 23 3 30 -3 9 -8 15 -8 20 0 5 8 11 7 23 -2 9 -7 13
-8 9 -2 -4 8 2 11 17 10 13 0 22 -4 19 -8 -7 -12 11 -10 23 2 8 8 15 6 25 -6
9 -12 10 -15 2 -10 -7 4 -13 3 -13 -3 0 -5 -11 -8 -25 -7 -14 2 -30 -3 -36
-10 -6 -8 -15 -11 -20 -8 -5 3 -9 1 -9 -4 0 -5 -11 -17 -24 -26 -27 -17 -60
-11 -52 10 7 18 -44 11 -53 -7 -11 -21 -7 -44 7 -41 7 1 12 -3 12 -9 0 -5 5
-7 10 -4 6 3 10 1 10 -4 0 -6 -5 -11 -11 -11 -5 0 -7 -4 -4 -10 3 -5 1 -10 -4
-10 -6 0 -10 -3 -9 -7 3 -15 -14 -63 -22 -63 -5 0 -8 -9 -7 -20 1 -11 5 -20 9
-20 4 0 5 -7 2 -15 -4 -8 -9 -13 -13 -11 -3 2 -6 -20 -5 -50 0 -31 -4 -54 -10
-54 -6 0 -4 -5 4 -10 12 -7 12 -10 1 -10 -7 0 -11 -6 -8 -15 4 -8 2 -17 -4
-20 -5 -4 -7 -11 -4 -16 4 -5 2 -9 -3 -9 -6 0 -9 -13 -8 -30 1 -16 -3 -30 -8
-30 -6 0 -4 -5 4 -10 11 -7 11 -10 2 -10 -8 0 -10 -5 -5 -12 10 -17 4 -51 -11
-60 -8 -6 -7 -8 2 -8 8 0 10 -5 6 -12 -11 -17 -13 -48 -3 -42 4 2 10 0 14 -6
3 -5 2 -10 -3 -10 -6 0 -8 -10 -4 -22 3 -14 1 -19 -6 -14 -8 5 -10 2 -6 -8 5
-12 0 -15 -19 -14 -14 1 -24 5 -21 9 2 4 -6 20 -18 35 -15 19 -17 24 -5 15 15
-12 17 -12 11 3 -3 9 -11 16 -17 16 -6 0 -8 3 -4 6 3 4 -1 13 -9 21 -8 8 -11
19 -8 25 4 7 2 8 -4 4 -7 -4 -12 -1 -12 9 0 13 -2 14 -14 3 -11 -10 -11 -16
-2 -27 8 -11 8 -13 -1 -8 -7 5 -9 0 -6 -13 3 -11 9 -20 14 -20 5 0 9 -5 9 -11
0 -5 -4 -8 -8 -5 -5 3 -9 -1 -9 -9 0 -8 5 -13 11 -12 6 1 10 -6 8 -17 -2 -10
1 -16 6 -12 5 3 9 -1 9 -9 0 -8 -5 -15 -11 -15 -8 0 -8 -2 0 -8 14 -9 27 -45
14 -37 -6 3 -10 2 -10 -3 0 -5 -7 -9 -15 -9 -11 0 -12 4 -4 13 11 14 -2 26
-17 16 -16 -11 -11 -68 6 -64 11 3 10 -1 -3 -16 -9 -10 -14 -22 -10 -26 4 -4
0 -4 -10 0 -12 4 -17 1 -17 -13 0 -11 -3 -23 -7 -27 -5 -4 -8 -13 -8 -19 -1
-7 -7 -11 -14 -9 -7 1 -10 -2 -6 -8 3 -6 11 -8 16 -5 5 4 9 1 9 -4 0 -6 -4
-11 -9 -11 -6 0 -8 -16 -7 -36 4 -34 3 -35 -14 -17 -12 12 -14 20 -6 26 7 5 8
9 1 15 -6 4 -10 16 -10 27 0 11 -4 26 -9 33 -6 8 -3 12 10 12 11 0 15 4 9 8
-12 9 -18 52 -7 52 9 0 12 15 12 69 0 19 5 40 11 48 9 10 8 13 -1 13 -9 0 -10
3 -2 13 12 14 10 76 -2 95 -4 7 -3 20 3 29 5 10 8 33 6 51 -1 17 1 32 6 32 5
0 8 3 8 8 -3 19 2 43 9 39 4 -3 7 15 6 39 0 25 4 48 9 51 5 3 3 9 -4 14 -11 7
-11 9 2 9 11 0 15 8 14 25 -2 14 0 25 4 25 4 0 8 7 8 15 0 8 -4 15 -8 15 -5 0
-13 10 -20 21 -8 16 -8 20 0 14 8 -5 10 1 5 19 -4 18 -2 26 7 26 11 0 11 3 -1
10 -8 5 -10 10 -5 10 12 0 13 40 1 58 -4 7 -2 12 6 12 9 0 9 3 -2 10 -11 7
-11 10 -2 10 9 0 10 5 3 19 -6 10 -7 21 -3 25 3 4 0 11 -8 16 -13 9 -13 10 0
10 12 0 12 2 1 9 -11 7 -10 13 3 33 9 14 13 28 10 31 -4 4 -1 14 7 24 12 14
12 16 0 8 -9 -5 -12 -4 -8 2 4 6 18 11 33 11 18 0 22 -3 13 -9z m803 -59 c6 0
27 -18 48 -40 21 -22 43 -40 49 -40 7 0 9 -5 6 -10 -3 -6 1 -13 10 -16 12 -5
13 -9 5 -14 -9 -5 -6 -10 9 -15 12 -3 19 -10 16 -15 -3 -4 2 -13 10 -20 8 -7
15 -23 15 -36 0 -12 5 -26 11 -30 6 -3 9 -15 6 -25 -3 -11 -1 -19 5 -19 5 0 6
-4 3 -10 -3 -5 0 -10 7 -10 11 0 10 -2 0 -9 -11 -7 -11 -9 2 -14 9 -4 16 -18
16 -35 0 -15 6 -34 13 -41 10 -11 10 -13 0 -7 -14 8 -18 -10 -5 -18 10 -6 8
-49 -6 -100 -6 -22 -9 -43 -6 -48 3 -4 0 -8 -6 -8 -7 0 -10 -6 -7 -12 2 -7 -5
-28 -15 -46 -10 -18 -16 -37 -13 -43 4 -5 2 -9 -4 -9 -6 0 -8 -7 -5 -15 4 -8
2 -15 -4 -15 -5 0 -12 -14 -16 -31 -3 -17 -10 -28 -16 -24 -5 3 -10 1 -10 -5
0 -6 -4 -9 -9 -5 -5 3 -17 -2 -25 -11 -9 -8 -16 -13 -16 -9 0 3 -6 0 -14 -7
-11 -10 -11 -16 -2 -27 8 -12 8 -13 -2 -7 -7 4 -15 1 -18 -8 -3 -9 -10 -13
-15 -10 -5 3 -9 0 -9 -6 0 -7 -6 -10 -12 -7 -7 2 -22 -9 -34 -24 -11 -16 -24
-26 -28 -22 -4 4 -4 0 0 -10 3 -10 1 -17 -6 -17 -6 0 -8 -4 -5 -10 3 -5 0 -10
-7 -10 -10 0 -10 -2 -1 -8 9 -6 6 -11 -8 -21 -12 -7 -18 -8 -14 -2 3 6 1 11
-4 11 -6 0 -11 -5 -11 -11 0 -5 -4 -7 -10 -4 -5 3 -10 1 -10 -5 0 -6 -4 -8
-10 -5 -5 3 -10 2 -10 -4 0 -5 -9 -8 -20 -6 -11 2 -20 0 -20 -6 0 -5 -12 -9
-26 -9 -17 0 -23 -4 -18 -12 5 -10 4 -10 -5 -2 -14 13 -54 7 -46 -6 3 -4 -3
-11 -12 -14 -9 -4 -20 -1 -25 6 -4 7 -8 9 -8 4 0 -5 -8 -2 -17 5 -11 10 -14
10 -9 2 4 -7 5 -13 2 -13 -3 0 -12 12 -19 28 -14 29 -12 58 7 81 9 12 8 13 -4
6 -12 -7 -13 -6 -3 7 7 8 10 18 6 21 -3 4 -1 7 6 7 8 0 11 7 7 15 -3 8 -1 15
4 15 6 0 10 7 10 16 0 8 3 13 8 11 4 -3 8 11 9 30 1 20 7 41 13 47 5 5 10 15
10 20 0 6 -4 4 -10 -4 -6 -10 -9 -5 -8 18 1 18 6 32 12 32 6 0 5 4 -3 9 -15
10 -8 61 9 61 5 0 7 6 4 14 -3 7 2 21 11 30 10 9 12 16 5 16 -7 0 -5 6 4 16
19 19 21 28 4 18 -10 -6 -10 -4 0 7 6 7 12 21 12 31 0 10 4 18 8 18 5 0 8 13
7 30 -1 16 2 27 7 23 5 -3 9 3 8 13 -4 35 0 44 18 44 13 0 14 2 3 9 -9 6 -10
10 -2 12 7 3 13 11 14 19 2 8 6 20 10 27 4 6 3 14 -3 18 -7 4 -7 12 0 26 8 14
7 19 -2 19 -9 0 -9 3 2 10 13 9 13 10 0 10 -11 0 -12 2 -3 8 8 5 9 13 3 22 -5
9 -5 19 2 27 7 9 7 13 -2 13 -10 0 -10 3 0 15 7 8 8 15 3 15 -5 0 -10 7 -10
15 0 8 5 15 11 15 6 0 5 4 -3 9 -8 5 -12 19 -9 35 3 14 1 23 -3 20 -5 -3 -9 0
-9 5 0 6 7 11 15 11 9 0 18 7 21 15 5 12 10 13 20 4 8 -7 14 -7 14 -2 0 13 53
11 62 -2 5 -6 8 -6 8 2 0 6 9 9 22 5 14 -3 19 -1 14 6 -3 6 2 12 11 14 10 2
20 0 21 -4 2 -4 8 -8 14 -8z m-562 -104 c0 -3 -4 -8 -10 -11 -5 -3 -10 -1 -10
4 0 6 5 11 10 11 6 0 10 -2 10 -4z m1865 -85 c-2 -5 7 -6 22 -3 18 3 24 1 19
-7 -4 -6 6 -25 24 -42 17 -17 29 -34 26 -37 -3 -3 2 -11 12 -19 10 -9 11 -12
2 -7 -9 4 -12 3 -7 -2 5 -5 13 -10 18 -10 5 -1 13 -2 18 -3 5 0 13 -10 16 -21
4 -11 19 -32 33 -47 15 -14 20 -22 12 -19 -9 5 -7 1 3 -7 14 -11 15 -16 5 -20
-8 -4 -7 -6 5 -6 10 -1 17 -9 17 -21 0 -11 6 -20 13 -21 9 0 9 -2 -1 -6 -10
-4 -10 -8 -1 -19 6 -8 8 -14 3 -14 -5 0 -2 -5 6 -10 8 -5 10 -10 3 -10 -6 0
-9 -9 -6 -20 3 -11 10 -20 15 -20 6 0 6 -6 -1 -14 -9 -11 -9 -15 1 -19 10 -4
10 -8 -2 -16 -10 -7 -11 -11 -2 -11 7 0 12 -13 12 -33 0 -18 -6 -39 -12 -46
-10 -11 -10 -13 0 -7 14 8 16 -3 2 -24 -6 -9 -5 -17 3 -22 9 -6 9 -8 0 -8 -6
0 -10 -9 -8 -20 2 -11 0 -20 -4 -20 -7 0 -9 -7 -13 -50 -1 -11 -7 -20 -13 -20
-5 0 -3 -5 5 -10 11 -7 11 -10 2 -10 -7 0 -10 -4 -7 -10 3 -5 1 -10 -5 -10 -6
0 -8 -5 -4 -12 5 -8 2 -9 -9 -5 -11 4 -17 1 -17 -7 0 -7 -16 -33 -35 -58 -19
-25 -31 -48 -28 -52 4 -3 1 -6 -5 -6 -7 0 -12 -5 -12 -10 0 -11 -11 -26 -45
-62 -12 -13 -14 -18 -5 -14 8 4 6 -1 -5 -11 -11 -10 -21 -25 -23 -33 -2 -8
-10 -20 -18 -27 -9 -6 -15 -14 -15 -17 3 -20 0 -26 -8 -21 -5 3 -12 1 -16 -5
-3 -5 0 -10 7 -11 7 0 3 -5 -10 -11 -13 -6 -21 -17 -18 -23 2 -6 -5 -17 -15
-24 -11 -6 -17 -16 -14 -21 4 -6 -1 -7 -11 -3 -12 4 -15 3 -10 -6 5 -7 -1 -23
-15 -38 -13 -15 -18 -23 -12 -19 9 5 11 2 7 -8 -3 -9 -10 -13 -15 -10 -5 3 -6
-2 -3 -11 4 -8 1 -21 -5 -29 -6 -7 -8 -16 -4 -19 3 -4 -2 -7 -13 -7 -16 0 -17
-2 -4 -10 13 -8 12 -10 -3 -10 -11 0 -21 -9 -24 -20 -3 -11 -9 -20 -14 -20 -5
0 -9 -6 -9 -13 0 -15 -54 -65 -91 -85 -15 -8 -25 -22 -26 -39 0 -15 -9 -32
-18 -39 -9 -7 -16 -15 -16 -18 2 -18 0 -26 -7 -23 -10 3 -52 -40 -45 -47 4 -3
-1 -6 -11 -6 -9 0 -14 -4 -11 -10 3 -5 -1 -10 -9 -10 -9 0 -16 -6 -16 -12 0
-7 -5 -5 -11 5 -5 9 -7 22 -4 27 3 6 1 10 -5 10 -8 0 -8 6 0 20 8 14 8 20 0
20 -6 0 -8 5 -4 12 5 7 8 28 7 48 0 19 5 47 13 61 7 15 10 29 7 33 -4 3 -1 6
6 6 7 0 9 5 6 10 -3 6 0 10 7 10 9 0 9 3 -2 10 -8 5 -10 10 -5 10 6 0 16 9 23
21 11 17 11 20 0 13 -10 -6 -10 -4 1 9 8 10 11 20 8 24 -4 3 1 12 11 19 10 9
13 17 7 21 -13 11 -18 36 -5 28 5 -3 10 -1 10 4 0 6 -5 11 -10 11 -6 0 -1 10
10 22 11 12 18 28 16 35 -3 7 -2 13 2 13 4 0 9 8 10 18 2 26 10 67 12 67 2 0
4 11 5 25 1 13 8 26 14 28 8 3 8 9 0 24 -8 14 -8 18 0 14 6 -4 13 5 16 21 4
15 11 36 16 47 8 13 7 16 -1 11 -7 -4 -4 5 6 21 11 15 13 25 7 21 -7 -5 -13
-4 -13 2 0 6 5 11 11 11 5 0 8 4 5 8 -2 4 -1 14 4 22 5 9 4 20 -3 29 -8 10 -8
12 -1 8 8 -4 13 8 17 35 3 24 11 44 17 46 8 3 8 8 -1 18 -8 10 -8 14 0 14 7 0
10 10 7 25 -3 15 0 25 7 25 8 0 8 3 2 8 -13 9 -18 35 -5 27 5 -3 10 -2 10 4 0
5 16 25 35 45 19 20 30 36 24 36 -6 0 -3 7 5 16 9 8 14 20 11 24 -3 5 1 25 9
44 10 25 11 37 3 45 -8 8 -7 11 3 11 11 0 11 3 2 12 -8 8 -8 17 -1 30 5 10 7
23 4 28 -4 6 0 13 9 16 8 3 12 12 9 20 -3 8 -1 14 4 14 5 0 9 12 9 28 -1 15 4
26 10 25 7 -1 9 8 6 24 -3 18 -1 24 7 19 7 -5 11 1 11 14 0 12 4 19 9 16 4 -3
7 6 5 20 -1 15 4 28 13 31 9 4 11 8 4 12 -7 5 -4 15 10 29 11 13 21 31 22 42
1 10 5 16 9 14 5 -3 6 -9 3 -13z m1082 -518 c-4 -3 -1 -13 6 -21 6 -9 7 -13 1
-10 -7 5 -10 -22 -9 -83 1 -56 -3 -89 -9 -89 -6 0 -4 -5 4 -10 10 -6 11 -10 3
-10 -7 0 -13 -5 -13 -11 0 -5 4 -8 8 -5 5 3 9 -1 9 -9 0 -8 -5 -11 -10 -8 -6
4 -8 0 -4 -10 4 -10 1 -17 -6 -17 -8 0 -6 -4 3 -10 13 -8 12 -11 -5 -25 -11
-9 -15 -14 -9 -11 14 7 16 -42 3 -50 -5 -3 -4 -14 1 -25 8 -14 7 -19 -2 -19
-10 0 -9 -3 1 -9 12 -8 12 -12 2 -25 -9 -11 -10 -16 -2 -16 12 0 9 -40 -5 -61
-4 -8 -3 -9 4 -5 13 8 12 -20 -1 -41 -4 -6 -1 -14 5 -17 7 -3 1 -4 -14 -2 -15
1 -25 0 -23 -4 2 -4 -12 -7 -31 -8 -19 -1 -40 -5 -47 -9 -17 -10 -47 -11 -47
-1 0 4 5 8 11 8 5 0 8 4 4 9 -3 6 4 26 15 46 11 20 15 33 8 29 -7 -5 -5 5 6
20 10 16 13 25 7 22 -6 -4 -11 -2 -11 3 0 6 4 11 9 11 5 0 12 7 15 16 4 10 2
13 -7 8 -9 -6 -9 -5 0 8 7 8 10 18 6 21 -3 4 -2 7 4 7 6 0 10 10 9 23 -1 14 4
21 13 19 12 -3 12 -1 0 14 -8 10 -9 15 -4 12 6 -4 17 2 24 14 7 11 8 17 2 13
-6 -3 -11 -1 -11 4 0 6 4 11 10 11 5 0 7 6 4 14 -3 8 0 17 6 21 9 6 9 10 -1
16 -10 6 -10 9 -2 9 7 0 10 7 7 15 -4 8 -2 15 4 15 5 0 8 11 7 25 -2 14 0 25
4 25 4 0 8 10 8 22 1 13 7 24 13 26 5 2 10 8 10 13 0 6 -5 7 -11 3 -8 -4 -8
-1 -1 13 6 10 13 34 15 53 6 42 5 40 14 40 3 0 3 -3 0 -7z m-3293 -585 c-3 -4
-9 -8 -15 -8 -5 0 -9 4 -9 8 0 5 7 9 15 9 8 0 12 -4 9 -9z m-2260 -33 c3 -9 0
-15 -9 -15 -9 0 -12 6 -9 15 4 8 7 15 9 15 2 0 5 -7 9 -15z m2873 -2214 c3
-46 2 -48 -23 -45 -37 4 -39 9 -14 43 12 17 18 31 13 31 -4 0 -1 5 7 10 8 5
15 10 15 10 0 0 1 -22 2 -49z"/>
<path d="M4955 5660 c-3 -5 -4 -14 -1 -19 4 -5 0 -11 -6 -14 -10 -3 -9 -8 2
-22 9 -11 10 -16 3 -11 -7 4 -13 5 -13 2 0 -3 10 -10 21 -17 17 -9 20 -8 13 3
-6 11 -5 11 9 -1 15 -12 17 -11 17 2 0 11 5 14 18 10 14 -5 15 -4 6 8 -6 8
-10 21 -9 29 4 27 -46 53 -60 30z"/>
<path d="M4900 5532 c0 -6 -8 -8 -18 -5 -10 2 -25 -4 -35 -14 -19 -21 -30 -90
-16 -99 5 -3 7 -10 4 -15 -6 -8 2 -11 21 -8 4 0 10 -5 15 -12 10 -17 42 -21
36 -4 -4 9 1 11 15 7 14 -3 19 -1 14 6 -4 8 0 12 11 12 15 0 16 2 3 10 -8 5
-10 10 -4 10 15 0 25 38 13 46 -5 3 -7 10 -4 15 4 5 1 9 -5 9 -7 0 -9 7 -6 16
3 8 2 13 -3 9 -5 -3 -17 2 -25 11 -9 8 -16 11 -16 6z"/>
<path d="M581 5273 c-16 -18 -21 -72 -7 -80 5 -4 6 -1 2 5 -9 15 -1 15 24 2
13 -7 21 -5 31 6 16 19 21 44 8 44 -5 0 -8 6 -6 13 1 6 -4 11 -10 10 -7 -2
-13 2 -13 7 0 15 -13 12 -29 -7z"/>
<path d="M2170 5210 c0 -5 -6 -9 -12 -7 -7 1 -12 -4 -10 -10 1 -7 -4 -13 -10
-13 -9 0 -8 -4 2 -10 8 -5 11 -10 5 -10 -5 0 1 -7 14 -17 23 -15 25 -15 37 2
20 26 17 48 -6 63 -12 7 -20 8 -20 2z"/>
<path d="M507 5193 c3 -10 2 -15 -2 -11 -5 5 -15 -1 -22 -12 -8 -11 -18 -18
-23 -15 -5 3 -11 -4 -15 -15 -4 -11 -11 -17 -17 -14 -16 10 0 -45 17 -63 8 -8
15 -11 15 -6 0 4 4 2 9 -6 7 -11 13 -9 30 8 13 13 23 31 24 41 0 10 6 16 13
13 25 -9 41 52 19 74 -9 9 -15 10 -15 3 0 -7 -6 -5 -16 4 -20 21 -25 20 -17
-1z"/>
<path d="M2021 5182 c-1 -7 -5 -10 -11 -7 -5 3 -10 1 -10 -6 0 -8 -5 -7 -17 2
-12 10 -14 10 -9 1 4 -7 1 -15 -9 -18 -13 -6 -14 -8 -3 -15 7 -5 8 -9 3 -9 -6
0 -11 -9 -12 -20 -1 -11 3 -20 8 -20 6 0 8 -4 5 -8 -3 -5 11 -15 29 -24 33
-15 36 -15 60 8 15 13 24 28 21 33 -4 5 -1 11 6 13 9 3 8 9 -5 22 -9 10 -17
22 -17 27 0 5 -6 9 -14 9 -8 0 -17 6 -19 13 -4 9 -6 9 -6 -1z"/>
<path d="M5316 5007 c3 -10 9 -15 12 -12 3 3 0 11 -7 18 -10 9 -11 8 -5 -6z"/>
<path d="M6608 3463 c-10 -2 -18 -9 -18 -15 0 -6 -3 -8 -7 -5 -9 10 -35 -31
-28 -43 3 -6 1 -10 -5 -10 -6 0 -8 -5 -5 -10 4 -6 12 -7 18 -3 7 4 6 -1 -2
-11 -8 -9 -10 -16 -5 -15 20 3 35 -1 30 -10 -3 -5 8 -8 24 -7 17 0 30 4 30 8
0 5 7 8 15 8 8 0 14 3 14 8 -1 4 0 9 1 12 7 19 7 41 -1 46 -5 3 -7 9 -4 14 3
5 -6 12 -20 16 -13 3 -22 10 -19 15 3 5 4 8 2 8 -2 -1 -11 -3 -20 -6z"/>
<path d="M6698 3288 c-15 -15 -15 -19 -3 -31 8 -8 11 -17 8 -21 -10 -10 7 -7
30 6 21 11 21 10 7 -8 -14 -18 -14 -18 3 -5 24 19 21 54 -6 66 -17 8 -26 7
-39 -7z"/>
<path d="M554 2773 c-10 -7 -18 -17 -18 -21 1 -4 -1 -13 -3 -19 -6 -14 21 -45
31 -36 3 4 6 2 6 -4 0 -16 32 -10 52 10 10 10 16 22 13 27 -4 6 0 10 7 10 8 1
4 8 -9 19 -12 10 -20 21 -17 24 12 11 -44 3 -62 -10z"/>
<path d="M4712 1924 c-8 -9 -9 -14 -2 -14 6 0 9 -4 6 -8 -3 -5 1 -9 9 -9 8 0
12 8 9 20 -5 26 -7 27 -22 11z"/>
<path d="M4776 1905 c2 -22 0 -24 -12 -14 -12 10 -13 9 -8 -5 5 -12 2 -15 -10
-10 -9 3 -16 2 -16 -3 0 -5 -9 -9 -19 -9 -11 0 -18 3 -15 7 2 4 -3 9 -11 13
-8 3 -15 1 -15 -5 0 -6 -7 -9 -15 -5 -8 3 -15 1 -15 -5 0 -6 -4 -7 -10 -4 -5
3 -10 0 -10 -7 0 -8 -3 -9 -8 -3 -9 13 -35 18 -27 5 9 -14 -18 -12 -34 3 -10
10 -11 8 -5 -8 6 -16 4 -18 -6 -8 -9 9 -19 9 -33 2 -14 -8 -18 -8 -13 0 4 6 2
11 -3 11 -6 0 -11 -6 -11 -12 0 -9 -4 -8 -10 2 -6 9 -10 11 -10 3 0 -7 -6 -10
-14 -7 -8 3 -17 0 -21 -5 -3 -6 -11 -9 -16 -6 -5 4 -9 1 -9 -6 0 -10 -3 -10
-12 -1 -9 9 -16 8 -29 -4 -11 -10 -19 -12 -24 -5 -8 14 -25 14 -25 0 0 -5 4
-8 8 -5 5 3 9 -1 9 -9 0 -8 -4 -12 -9 -9 -4 3 -8 -2 -8 -11 0 -9 4 -14 9 -10
5 3 21 -6 35 -20 14 -14 32 -25 41 -25 8 0 15 -5 15 -11 0 -5 5 -7 10 -4 6 3
10 0 10 -7 0 -9 3 -9 10 2 7 11 10 11 10 2 0 -7 5 -10 10 -7 6 3 10 2 10 -3 0
-6 10 -8 22 -4 16 4 19 2 13 -9 -7 -11 -6 -12 7 -2 8 7 18 10 21 6 4 -3 13 0
22 7 8 7 22 10 30 6 8 -3 15 -2 15 2 0 4 9 8 19 8 11 0 18 -3 15 -7 -2 -4 2
-10 8 -12 10 -4 10 -6 1 -6 -7 -1 -13 -12 -13 -25 0 -14 -4 -27 -10 -31 -5 -3
-7 -12 -3 -20 3 -8 0 -15 -7 -15 -6 0 -8 -4 -5 -10 3 -5 3 -16 -2 -22 -8 -14
-8 -15 -18 -63 -3 -16 -10 -31 -16 -33 -5 -2 -9 -8 -9 -13 0 -6 5 -7 12 -3 6
4 4 -3 -5 -17 -9 -13 -17 -34 -17 -47 0 -13 -4 -21 -9 -18 -5 4 -8 -2 -7 -11
2 -10 -3 -28 -11 -40 -11 -17 -12 -22 -1 -26 9 -4 8 -6 -3 -6 -9 -1 -20 -8
-23 -17 -4 -9 -2 -13 5 -8 7 4 7 -1 -1 -15 -6 -12 -12 -35 -12 -51 -1 -16 -5
-27 -11 -23 -5 3 -4 -4 2 -15 6 -11 11 -23 11 -27 0 -3 -5 -3 -11 1 -7 4 -7
-1 1 -16 10 -18 9 -21 -1 -15 -8 6 -11 4 -6 -7 3 -9 -1 -27 -8 -42 -10 -19
-11 -26 -2 -26 8 0 9 -2 1 -8 -6 -4 -10 -17 -9 -29 1 -13 -2 -23 -6 -23 -5 0
-5 -7 -2 -17 5 -12 3 -14 -8 -8 -12 7 -12 6 -1 -7 13 -16 13 -76 0 -84 -5 -3
-4 -14 2 -24 7 -13 7 -21 -1 -26 -8 -4 -7 -9 2 -15 8 -5 10 -9 4 -9 -5 0 -11
-17 -11 -38 -1 -30 2 -38 17 -39 11 -1 19 5 19 13 0 8 5 14 11 14 6 0 8 7 5
16 -5 14 -4 15 8 5 13 -11 15 -9 11 8 -2 12 7 33 21 51 14 16 23 34 20 39 -4
5 1 17 10 25 8 9 10 16 4 16 -7 0 -8 6 0 19 7 14 7 22 0 26 -8 5 -8 11 0 20 8
9 8 15 0 20 -7 4 -7 12 0 26 6 11 8 23 6 28 -3 5 1 12 10 15 8 3 12 10 9 16
-3 5 -1 10 6 10 7 0 9 8 6 21 -4 15 -2 17 6 10 9 -7 12 0 13 26 1 19 7 39 14
43 9 6 9 9 -1 13 -11 4 -11 6 -1 6 7 1 10 6 7 11 -3 5 -1 10 5 10 6 0 9 4 6 8
-3 5 1 20 8 34 11 20 11 29 2 39 -8 9 -8 10 3 4 11 -6 13 -4 8 8 -3 10 -2 17
4 17 6 0 7 5 3 12 -4 6 0 16 8 22 16 12 18 17 18 42 0 8 4 13 8 10 5 -3 8 5 7
17 -1 12 3 29 10 37 14 16 30 61 27 73 -1 4 3 7 8 7 6 0 10 7 10 15 0 8 5 15
11 15 5 0 7 5 4 10 -3 6 -2 10 3 10 6 0 13 7 16 16 4 10 2 13 -7 9 -6 -4 -5
-1 3 7 10 8 15 28 14 55 -2 53 12 72 56 75 19 1 42 8 52 15 11 10 18 11 23 3
3 -5 11 -7 17 -4 5 3 44 6 86 6 43 1 82 4 87 8 6 4 21 11 34 15 18 6 22 4 15
-6 -5 -9 3 -7 20 5 16 10 25 13 22 7 -5 -7 -1 -9 8 -5 9 3 16 10 16 15 0 4 7
6 15 3 9 -4 15 0 15 7 0 11 3 11 10 -1 9 -13 10 -13 10 0 0 9 3 11 8 5 9 -13
35 -18 27 -5 -3 5 -1 10 4 10 6 0 11 -6 11 -13 0 -9 12 -11 40 -9 70 7 42 40
-30 36 -26 -2 -48 2 -52 9 -6 9 -8 8 -8 -2 0 -10 -5 -9 -17 5 -10 11 -25 19
-33 19 -8 0 -18 4 -22 10 -5 7 -8 6 -8 -1 0 -7 -10 -9 -25 -6 -14 2 -23 7 -20
11 2 4 -17 6 -43 4 -67 -4 -72 -5 -72 -17 0 -6 -5 -4 -10 4 -7 11 -10 11 -10
2 0 -8 -5 -10 -12 -5 -18 11 -42 10 -50 -2 -5 -6 -8 -5 -8 3 0 7 -4 11 -9 7
-5 -3 -12 -1 -16 4 -3 6 -15 7 -29 1 -16 -6 -28 -5 -36 3 -10 9 -11 9 -6 0 5
-9 2 -11 -8 -7 -9 3 -13 11 -9 18 3 6 -4 2 -16 -9 -14 -12 -21 -14 -19 -6 2 7
-3 16 -10 18 -8 3 -10 -1 -5 -14 3 -10 3 -15 -1 -11 -4 3 -9 14 -10 24 -4 29
-24 28 -20 -1z"/>
<path d="M2081 1877 c-6 -8 -8 -16 -6 -19 3 -3 -3 -8 -14 -11 -11 -3 -19 0
-18 5 1 5 -8 14 -20 19 -18 6 -23 5 -23 -7 0 -9 5 -13 13 -9 6 4 3 -1 -7 -9
-11 -9 -16 -16 -10 -16 5 -1 -4 -8 -21 -17 -33 -19 -105 -26 -105 -11 0 5 -7
2 -16 -6 -8 -9 -20 -14 -25 -11 -5 4 -9 1 -9 -5 0 -6 -4 -8 -10 -5 -5 3 -10 2
-10 -4 0 -5 -9 -8 -20 -6 -13 3 -18 0 -14 -7 5 -7 2 -9 -9 -5 -8 3 -18 0 -21
-8 -3 -9 0 -12 10 -8 10 4 17 -2 21 -16 3 -11 9 -18 14 -15 5 3 9 1 9 -5 0 -5
9 -12 20 -16 11 -3 19 -10 17 -15 -1 -4 1 -7 4 -7 4 1 17 -7 30 -18 15 -13 19
-14 11 -3 -11 14 -11 16 7 11 25 -6 35 -32 16 -39 -8 -4 -13 -10 -10 -14 3 -5
1 -11 -5 -15 -6 -4 -8 -11 -5 -16 4 -5 0 -9 -7 -9 -9 0 -9 -3 2 -10 10 -6 11
-10 3 -10 -7 0 -13 -8 -14 -17 0 -11 -3 -13 -6 -6 -3 9 -10 10 -23 3 -13 -7
-20 -6 -23 3 -3 8 -10 6 -20 -8 -16 -21 -18 -88 -3 -102 5 -5 6 -2 1 7 -5 9
-5 12 1 7 5 -5 10 -13 10 -18 1 -5 3 -10 4 -11 7 -7 5 -58 -2 -58 -4 0 -5 -7
-2 -15 4 -8 1 -15 -6 -15 -6 0 -9 -4 -5 -9 3 -5 1 -12 -5 -16 -6 -4 -8 -10 -5
-15 3 -4 -2 -13 -10 -20 -8 -7 -12 -16 -9 -21 3 -5 0 -9 -6 -9 -6 0 -9 -4 -6
-9 3 -5 -6 -21 -20 -36 -21 -23 -28 -25 -35 -14 -5 8 -9 9 -9 3 0 -11 -7 -13
-54 -17 -13 -1 -22 -6 -18 -11 3 -5 -2 -7 -11 -3 -10 3 -17 2 -17 -4 0 -6 -5
-7 -12 -3 -7 4 -8 3 -4 -5 4 -6 12 -8 18 -5 7 5 9 1 5 -9 -4 -11 -2 -14 7 -11
16 6 49 -24 41 -37 -4 -5 1 -9 9 -9 9 0 16 -5 16 -12 0 -9 3 -9 11 -1 9 9 15
9 23 0 18 -18 27 -47 15 -47 -6 0 -8 -4 -4 -9 3 -5 -2 -17 -11 -25 -11 -12
-12 -16 -2 -16 10 0 10 -2 0 -8 -9 -6 -10 -15 -3 -33 8 -20 13 -16 10 8 0 3 6
10 15 15 9 5 16 18 16 29 0 11 4 17 10 14 5 -3 7 0 5 7 -4 9 10 22 35 36 23
12 38 17 34 11 -4 -7 2 -7 16 1 12 6 28 9 36 6 8 -3 14 -1 14 3 0 5 7 12 16
15 10 4 13 2 8 -7 -6 -8 -3 -8 9 1 9 8 20 11 26 8 5 -3 11 -1 13 5 2 6 16 12
31 12 15 0 24 3 21 8 -3 5 2 6 10 3 8 -3 24 0 36 6 13 7 20 7 16 2 -4 -6 2 -8
14 -5 11 3 17 9 14 14 -3 5 2 6 10 3 9 -3 13 -11 10 -18 -3 -6 1 -3 9 6 10 13
16 15 25 6 9 -9 12 -9 12 1 0 7 4 10 9 6 6 -3 19 5 30 17 12 12 21 16 21 10 0
-9 5 -10 18 -4 9 5 25 8 35 7 9 -2 17 0 17 5 0 8 43 5 59 -4 5 -4 13 -1 17 5
5 8 3 9 -6 4 -8 -5 -11 -4 -7 3 4 5 16 8 27 5 11 -3 20 -1 20 5 0 6 11 9 24 6
14 -2 27 0 31 5 3 6 12 8 20 4 8 -3 15 1 15 8 0 7 3 9 7 6 3 -4 13 -1 21 6 13
10 14 9 7 -3 -8 -13 -7 -13 8 -1 9 7 17 9 17 3 0 -5 11 -9 24 -8 13 0 22 4 19
9 -2 4 3 7 12 7 10 0 13 -5 9 -12 -4 -7 -3 -8 4 -4 7 4 12 2 12 -5 0 -7 6 -4
14 7 18 24 7 31 -46 28 -39 -1 -75 16 -61 29 3 4 -6 4 -21 1 -16 -2 -26 0 -26
7 0 8 -6 7 -17 -2 -11 -10 -14 -10 -9 -1 4 7 2 13 -6 14 -7 0 -17 2 -23 2 -5
1 -16 5 -24 10 -10 6 -12 5 -7 -2 4 -7 2 -12 -3 -12 -6 0 -11 6 -11 13 0 8 -3
9 -8 1 -4 -6 -15 -10 -24 -8 -10 1 -18 -2 -18 -7 0 -6 -4 -8 -9 -4 -5 3 -12 1
-16 -5 -4 -6 -11 -8 -16 -5 -5 4 -9 2 -9 -4 0 -10 -25 -9 -36 2 -12 12 -26 8
-18 -5 6 -10 4 -10 -7 -2 -8 5 -23 9 -34 8 -74 -6 -91 -10 -97 -19 -5 -6 -8
-5 -8 4 0 11 -3 11 -15 1 -8 -6 -19 -9 -25 -5 -5 3 -10 1 -10 -5 0 -6 -4 -8
-10 -5 -5 3 -10 2 -10 -2 0 -5 -13 -9 -30 -9 -16 -1 -28 2 -25 6 2 3 -2 7 -10
7 -8 0 -15 -3 -15 -7 0 -7 -3 -7 -50 -12 -14 -2 -28 -7 -32 -13 -5 -6 -8 -6
-8 1 0 6 12 24 27 40 15 16 26 30 25 32 -6 8 0 22 7 18 5 -3 12 1 15 10 4 10
2 13 -7 9 -6 -4 -5 -1 3 7 8 7 16 19 18 26 1 8 12 27 25 43 16 22 28 29 44 26
13 -2 23 -1 23 2 0 4 18 7 40 6 22 -1 40 2 40 6 0 7 34 21 56 23 6 1 18 7 27
14 9 7 30 14 47 14 17 1 33 5 36 10 3 4 10 6 15 3 5 -3 6 0 4 7 -3 8 -16 14
-30 14 -13 0 -21 -4 -18 -9 3 -5 -4 -3 -16 5 -12 7 -21 16 -21 20 0 5 -9 8
-19 8 -11 0 -23 5 -26 10 -5 8 -11 7 -21 -1 -9 -7 -14 -8 -14 -1 0 5 -9 8 -20
5 -11 -3 -20 -10 -20 -16 0 -6 -3 -7 -7 -4 -3 4 -12 2 -20 -4 -9 -9 -13 -8
-13 0 0 6 -5 11 -11 11 -5 0 -7 -5 -3 -12 4 -6 3 -8 -4 -5 -5 4 -9 13 -8 20 5
23 20 52 30 59 5 3 11 14 12 24 2 9 8 21 16 25 7 4 9 11 5 15 -4 4 1 13 11 21
9 8 11 11 3 7 -9 -5 -12 -3 -7 4 4 7 14 12 22 12 8 0 14 4 14 8 0 5 6 9 13 9
96 6 141 13 148 24 7 11 9 11 9 -1 0 -12 2 -13 9 -1 5 7 20 14 35 14 14 0 23
3 21 7 -3 5 5 6 17 2 13 -3 19 -1 15 5 -4 7 10 10 38 8 24 -1 50 3 57 8 9 6 8
7 -4 3 -12 -3 -18 0 -18 10 0 9 -6 14 -12 11 -7 -2 -12 -10 -10 -16 1 -7 -2
-10 -8 -6 -6 3 -7 11 -4 17 4 6 1 9 -7 6 -8 -3 -20 1 -27 9 -7 7 -22 13 -33
13 -10 0 -19 4 -19 9 0 11 -80 13 -95 2 -16 -12 -65 -12 -65 0 0 6 -14 9 -32
7 -18 -2 -33 2 -33 7 0 21 -16 34 -33 28 -15 -6 -15 -5 -3 10 7 9 11 17 8 17
-2 0 -10 -6 -16 -13z m32 -42 c-3 -8 -10 -15 -15 -15 -7 0 -6 5 1 13 6 8 7 18
3 22 -4 5 -2 5 5 1 7 -4 10 -13 6 -21z"/>
<path d="M659 1841 c-1 -3 0 -10 1 -16 1 -5 -2 -7 -5 -3 -4 4 -17 3 -28 -3
-15 -8 -18 -8 -12 1 5 9 3 9 -11 2 -11 -5 -25 -7 -32 -5 -7 3 -20 -1 -29 -9
-13 -10 -15 -10 -9 0 6 10 1 11 -21 6 -15 -4 -38 -8 -50 -8 -12 0 -19 -4 -16
-10 4 -5 0 -7 -9 -4 -18 7 -80 -21 -72 -33 3 -5 1 -9 -5 -9 -5 0 -12 6 -15 13
-4 6 -4 2 -2 -11 4 -19 2 -21 -10 -11 -11 9 -14 9 -14 0 0 -7 -4 -9 -10 -6 -6
3 -7 -1 -3 -10 5 -13 7 -14 14 -3 7 11 9 11 9 -1 0 -10 5 -10 25 3 14 9 30 14
35 11 6 -4 13 0 16 8 3 9 14 12 29 9 14 -2 23 -8 20 -12 -7 -11 39 -7 47 5 5
6 8 5 8 -2 0 -7 7 -13 15 -13 8 0 15 -5 15 -11 0 -8 4 -8 14 0 10 8 16 8 25
-2 8 -11 5 -17 -14 -27 -14 -7 -25 -20 -25 -29 0 -14 -2 -14 -10 -1 -8 13 -10
12 -10 -2 0 -10 -5 -17 -11 -15 -6 1 -17 -15 -25 -35 -10 -29 -10 -38 -1 -38
8 0 7 -3 -2 -9 -7 -5 -10 -14 -7 -20 4 -6 3 -11 -2 -11 -5 0 -8 -13 -6 -29 2
-18 -3 -34 -13 -43 -14 -11 -16 -11 -8 1 5 10 4 12 -3 7 -7 -4 -12 -15 -13
-24 0 -12 -3 -10 -10 6 -5 13 -13 20 -19 17 -14 -9 -12 -17 3 -10 6 3 2 -2
-10 -11 -26 -19 -30 -34 -9 -34 8 0 18 -5 22 -12 5 -7 3 -8 -6 -3 -9 5 -11 4
-6 -3 4 -7 13 -12 20 -12 13 0 14 -49 1 -69 -3 -6 -1 -11 5 -11 7 0 8 -5 3
-12 -4 -7 -8 -20 -8 -28 0 -8 -3 -19 -6 -25 -4 -5 -5 -18 -4 -28 2 -10 -1 -14
-8 -10 -6 4 -8 0 -4 -10 4 -10 1 -17 -6 -17 -8 0 -8 -3 2 -9 11 -7 11 -9 0
-13 -12 -4 -11 -8 1 -23 8 -10 10 -16 3 -12 -7 4 -16 0 -22 -10 -6 -10 -11
-13 -11 -8 0 6 -4 4 -9 -4 -5 -8 -17 -16 -25 -18 -35 -7 -41 -9 -53 -16 -7 -5
-13 -5 -13 -2 0 3 -6 0 -14 -7 -8 -7 -12 -16 -10 -20 3 -4 -7 -5 -22 -2 -16 3
-23 1 -19 -6 3 -6 0 -7 -9 -4 -9 3 -16 1 -16 -5 0 -6 -7 -8 -15 -5 -9 4 -15 0
-15 -7 0 -12 -2 -12 -9 0 -6 9 -10 10 -16 2 -5 -9 -11 -9 -23 1 -11 9 -14 10
-8 1 5 -9 -1 -12 -23 -9 -17 2 -31 -1 -31 -6 0 -5 -4 -6 -10 -3 -5 3 -10 1
-10 -6 0 -6 8 -9 20 -6 10 3 21 0 24 -7 3 -7 5 -6 5 3 1 11 4 11 16 1 11 -9
15 -9 15 -1 0 7 4 10 8 7 5 -3 27 -6 50 -7 22 -2 39 -6 36 -10 -2 -4 0 -10 6
-14 5 -3 10 -1 10 5 0 6 5 8 10 5 6 -3 10 0 10 7 0 9 3 9 10 -2 9 -13 11 -13
20 0 9 13 11 13 20 0 5 -8 10 -10 10 -4 0 15 50 15 50 0 0 -7 3 -7 8 -1 9 13
31 17 50 10 12 -5 12 -9 -4 -27 -11 -12 -13 -18 -6 -14 6 4 12 3 12 -3 0 -5
-6 -11 -12 -14 -7 -2 -10 -8 -6 -12 14 -14 40 5 35 25 -3 11 0 18 6 17 6 -1
12 5 12 13 0 8 6 14 13 13 7 -2 12 2 12 8 0 5 5 7 12 3 7 -5 9 -2 5 9 -3 9 1
21 11 29 11 9 14 10 8 1 -4 -7 -3 -13 2 -13 6 0 12 7 16 15 3 9 12 12 22 8 13
-5 15 -3 9 7 -6 10 -2 12 19 8 14 -3 26 -2 26 3 0 8 33 4 50 -6 6 -3 13 0 16
9 3 8 12 12 19 10 7 -3 16 0 20 6 6 9 10 9 16 -1 6 -10 9 -11 9 -1 0 6 7 12
15 12 8 0 15 5 15 11 0 5 4 8 9 4 6 -3 14 3 20 12 8 14 10 15 11 3 0 -13 1
-13 10 0 5 8 14 16 20 16 5 1 15 2 21 3 5 0 7 6 4 11 -3 6 0 10 7 10 13 0 82
71 91 94 3 7 0 19 -6 26 -9 10 -9 11 3 4 12 -7 12 -3 -2 16 -9 14 -21 24 -27
22 -6 -1 -11 4 -11 12 0 8 -9 18 -20 21 -11 3 -20 11 -20 16 0 6 -4 7 -10 4
-5 -3 -10 -1 -10 5 0 6 -4 8 -10 5 -5 -3 -10 1 -10 9 0 9 -3 15 -7 15 -22 -4
-32 3 -26 16 3 9 8 13 11 10 3 -3 14 3 25 12 10 10 21 17 23 16 2 -2 7 -3 12
-3 4 0 0 5 -8 10 -13 8 -13 10 2 10 9 0 28 11 41 24 14 14 28 22 31 19 3 -4 6
1 6 10 0 10 3 16 8 15 4 -2 7 0 7 4 0 4 9 14 20 23 11 9 13 14 5 10 -8 -4 -6
2 6 12 15 13 21 30 20 56 -1 20 3 37 7 37 5 0 5 6 0 13 -4 6 -6 23 -4 36 2 15
-1 21 -8 17 -6 -4 -11 -1 -11 7 0 14 -27 32 -42 29 -5 -1 -8 3 -8 8 0 6 -9 10
-20 10 -11 0 -20 4 -20 8 0 8 -14 12 -52 13 -10 0 -18 4 -18 8 0 5 -13 7 -30
6 -16 -1 -30 1 -30 6 0 5 -7 6 -15 3 -8 -3 -20 -2 -27 2 -15 10 -48 13 -49 5z
m93 -134 c5 -8 8 -8 8 -1 0 7 11 9 25 6 14 -2 25 -9 25 -14 0 -5 5 -6 10 -3 6
4 9 1 8 -7 -2 -7 2 -12 9 -11 16 3 9 -42 -9 -61 -9 -8 -18 -12 -22 -9 -3 4 -6
1 -6 -5 0 -7 -5 -12 -11 -12 -5 0 -7 6 -4 13 4 6 0 4 -8 -5 -8 -10 -20 -18
-26 -18 -7 0 -9 -5 -6 -11 4 -6 -2 -13 -14 -16 -12 -3 -18 -10 -14 -17 4 -6
-2 -4 -12 4 -11 9 -16 10 -11 3 4 -7 2 -14 -3 -14 -6 -1 -17 -2 -23 -3 -25 -4
-29 6 -13 30 9 14 13 29 10 34 -3 6 -3 10 2 10 13 0 2 90 -11 90 -17 1 45 26
68 28 11 0 24 -4 28 -11z m-142 -429 c0 -4 7 -8 16 -8 9 0 12 -5 8 -12 -5 -8
-2 -9 11 -5 11 5 23 1 32 -10 8 -10 12 -12 8 -5 -3 6 -2 12 3 12 6 0 13 -7 16
-16 3 -8 2 -12 -3 -9 -5 3 -12 1 -16 -4 -3 -6 -13 -7 -22 -4 -10 4 -14 2 -10
-4 4 -7 -5 -14 -23 -18 -17 -4 -30 -13 -30 -21 0 -9 -4 -12 -10 -9 -5 3 -16 3
-22 -2 -21 -13 -47 -13 -54 -1 -5 7 -3 8 7 3 11 -7 12 -6 2 6 -10 12 -9 18 7
29 10 7 17 17 14 22 -3 4 0 8 6 8 7 0 9 7 6 15 -3 9 1 18 9 21 8 4 13 10 10
14 -3 5 4 8 15 7 11 -1 20 -5 20 -9z"/>
<path d="M6330 1836 c0 -2 7 -7 16 -10 8 -3 12 -2 9 4 -6 10 -25 14 -25 6z"/>
<path d="M4286 1805 c-3 -8 -1 -15 4 -15 13 0 22 18 11 24 -5 3 -11 -1 -15 -9z"/>
<path d="M4245 1800 c-3 -5 -1 -10 4 -10 6 0 11 5 11 10 0 6 -2 10 -4 10 -3 0
-8 -4 -11 -10z"/>
<path d="M5646 1767 c3 -10 9 -15 12 -12 3 3 0 11 -7 18 -10 9 -11 8 -5 -6z"/>
<path d="M4282 1749 c2 -7 10 -15 17 -17 8 -3 12 1 9 9 -2 7 -10 15 -17 17 -8
3 -12 -1 -9 -9z"/>
<path d="M5686 1713 c-4 -9 -1 -11 6 -7 8 5 9 2 4 -11 -5 -15 -4 -16 9 -5 8 7
15 18 15 25 0 16 -28 15 -34 -2z"/>
<path d="M1736 1684 c-4 -9 1 -14 14 -14 23 0 27 15 6 23 -8 3 -17 -1 -20 -9z"/>
<path d="M1743 1513 c8 -9 20 -12 26 -9 19 12 12 24 -15 24 -23 0 -24 -2 -11
-15z"/>
<path d="M1725 1461 c-3 -5 0 -13 6 -17 8 -5 9 -3 4 6 -6 10 -4 12 9 7 10 -4
15 -3 11 3 -8 13 -22 13 -30 1z"/>
<path d="M355 1440 c-3 -5 -1 -10 4 -10 6 0 11 5 11 10 0 6 -2 10 -4 10 -3 0
-8 -4 -11 -10z"/>
<path d="M316 1422 c-3 -5 1 -9 9 -9 8 0 12 4 9 9 -3 4 -7 8 -9 8 -2 0 -6 -4
-9 -8z"/>
<path d="M357 1376 c-9 -24 -9 -25 10 -22 9 2 19 9 21 16 3 7 0 10 -6 6 -6 -3
-12 -1 -14 6 -3 7 -7 5 -11 -6z"/>
<path d="M3634 1258 c-3 -4 2 -8 11 -8 10 0 13 -5 9 -12 -4 -7 -3 -9 1 -5 15
13 14 34 -2 34 -7 0 -16 -4 -19 -9z"/>
<path d="M3705 1211 c-3 -5 0 -13 6 -17 7 -4 9 -3 5 4 -3 5 0 13 6 15 9 4 10
6 1 6 -6 1 -14 -3 -18 -8z"/>
<path d="M1560 1065 c-10 -13 -9 -15 11 -14 13 0 18 3 11 6 -6 2 -10 9 -6 14
9 15 -2 10 -16 -6z"/>
<path d="M3424 793 c2 -10 -2 -22 -8 -26 -7 -5 -3 -7 9 -5 22 4 28 39 8 45 -6
2 -10 -4 -9 -14z"/>
</g>
</svg>
