<svg width="19" height="22" viewBox="0 0 19 22" fill="none" xmlns="http://www.w3.org/2000/svg">
<path fill-rule="evenodd" clip-rule="evenodd" d="M2.52333 22C2.47853 21.9877 2.43453 21.97 2.38873 21.9638C1.55899 21.851 0.863073 21.5193 0.438154 20.8451C0.234146 20.5214 0.142544 20.1386 0 19.7826V19.2174C0.0149971 19.163 0.0333746 19.1091 0.0446105 19.054C0.220196 18.1912 0.740478 17.575 1.61336 17.2023C2.49376 16.8265 3.44339 16.6882 4.38473 16.5288C5.06118 16.4142 5.52975 16.1687 5.52794 15.3718C5.51861 11.3367 5.52285 7.30152 5.52352 3.26635C5.52361 2.61452 5.84941 2.23304 6.53728 2.09739C7.05127 1.99596 7.57074 1.91752 8.08636 1.82239C9.44915 1.571 10.8109 1.3147 12.1736 1.06304C13.6293 0.794261 15.0855 0.528783 16.5415 0.261304C17.0108 0.175087 17.4798 0.0871304 17.949 0H18.3774C18.6531 0.0927391 18.8504 0.259696 18.9263 0.521783C18.9662 0.659435 18.9923 0.80513 18.9919 0.947087C18.9888 2.11143 18.9697 3.27583 18.971 4.44017C18.9736 6.82304 18.9875 9.20587 18.9938 11.5887C18.9977 13.0669 19.0072 14.5451 18.9903 16.0231C18.9851 16.4821 18.9314 16.9449 18.8468 17.3977C18.7189 18.0826 18.3076 18.6244 17.7087 19.0459C17.2011 19.4031 16.6173 19.5689 15.9877 19.6691C15.3053 19.7777 14.645 19.8385 13.9628 19.6596C12.9249 19.3875 12.1171 18.4567 12.0416 17.4824C11.9549 16.364 12.6223 15.407 13.7501 14.9538C14.6761 14.5817 15.6684 14.453 16.6447 14.269C17.2647 14.1521 17.5635 13.8616 17.5685 13.2802C17.5733 12.7227 17.5855 12.1651 17.5874 11.6076C17.5929 10.0571 17.5953 8.50665 17.5978 6.95622C17.5983 6.61574 17.5999 6.27509 17.5909 5.93478C17.5825 5.61456 17.4439 5.42091 17.1943 5.39396C17.0386 5.37713 16.8733 5.37474 16.7205 5.40296C15.7489 5.58248 14.7808 5.77796 13.8092 5.95735C12.7524 6.15243 11.6919 6.33083 10.6351 6.52561C9.62692 6.71139 8.62169 6.91039 7.6145 7.10043C7.12892 7.19204 6.94372 7.38161 6.91411 7.83709C6.90844 7.92378 6.9103 8.01091 6.9103 8.09787C6.90878 11.5034 6.91339 14.909 6.89921 18.3144C6.8973 18.773 6.85988 19.245 6.73657 19.687C6.4431 20.7387 5.69767 21.4353 4.54918 21.7353C4.09012 21.8551 3.61179 21.9136 3.14226 22H2.52333Z" fill="black"/>
</svg>
