<svg width="22" height="14" viewBox="0 0 22 14" fill="none" xmlns="http://www.w3.org/2000/svg">
<path fill-rule="evenodd" clip-rule="evenodd" d="M12.1244 6.13103C11.8637 6.29195 11.497 6.37241 11.0244 6.37241C10.5519 6.37241 10.1689 6.29195 9.87556 6.13103L5.42667 3.76552C2.52593 2.22069 0.961481 1.4 0.733333 1.30345C0.211852 1.01379 -0.0162963 0.691954 0.0488889 0.337931C0.0814815 0.112644 0.293333 0 0.684444 0H21.3644C21.9837 0 22.1467 0.257471 21.8533 0.772414C21.723 0.997701 21.5274 1.17471 21.2667 1.30345C21.0385 1.4 19.4741 2.22069 16.5733 3.76552L12.1244 6.13103ZM21.5844 13.6138C21.3074 13.8713 21.0385 14 20.7778 14H1.22222C0.961481 14 0.692593 13.8713 0.415556 13.6138C0.138519 13.3563 0 13.0989 0 12.8414V3.95862C0 3.63678 0.162963 3.55632 0.488889 3.71724L9.87556 8.54483C10.1689 8.70575 10.5437 8.78621 11 8.78621C11.4563 8.78621 11.8311 8.70575 12.1244 8.54483L21.5111 3.71724C21.837 3.55632 22 3.63678 22 3.95862V12.8414C22 13.0989 21.8615 13.3563 21.5844 13.6138Z" fill="black"/>
</svg>
