<svg width="21" height="20" viewBox="0 0 21 20" fill="none" xmlns="http://www.w3.org/2000/svg">
<path fill-rule="evenodd" clip-rule="evenodd" d="M12.9746 12.3568C13.6582 11.7057 14 10.9201 14 10C14 9.07986 13.6582 8.29427 12.9746 7.64323C12.291 6.99218 11.4662 6.66667 10.5 6.66667C9.53385 6.66667 8.70899 6.99218 8.02539 7.64323C7.34179 8.29427 7 9.07986 7 10C7 10.9201 7.34179 11.7057 8.02539 12.3568C8.70899 13.0078 9.53385 13.3333 10.5 13.3333C11.4662 13.3333 12.291 13.0078 12.9746 12.3568ZM14.3145 6.36719C15.3626 7.36546 15.8867 8.57638 15.8867 10C15.8867 11.4236 15.3626 12.6345 14.3145 13.6328C13.2663 14.6311 11.9948 15.1302 10.5 15.1302C9.0052 15.1302 7.73373 14.6311 6.68555 13.6328C5.63736 12.6345 5.11328 11.4236 5.11328 10C5.11328 8.57638 5.63736 7.36546 6.68555 6.36719C7.73373 5.36892 9.0052 4.86979 10.5 4.86979C11.9948 4.86979 13.2663 5.36892 14.3145 6.36719ZM16.9941 3.8151C17.2402 4.04948 17.3633 4.3316 17.3633 4.66146C17.3633 4.99132 17.2402 5.27344 16.9941 5.50781C16.748 5.74219 16.4518 5.85938 16.1055 5.85938C15.7591 5.85938 15.4629 5.74219 15.2168 5.50781C14.9707 5.27344 14.8477 4.99132 14.8477 4.66146C14.8477 4.3316 14.9707 4.04948 15.2168 3.8151C15.4629 3.58073 15.7591 3.46354 16.1055 3.46354C16.4518 3.46354 16.748 3.58073 16.9941 3.8151ZM11.5391 1.79688H10.5C10.4362 1.79688 10.0876 1.7947 9.4541 1.79036C8.82063 1.78602 8.33985 1.78602 8.01172 1.79036C7.68359 1.7947 7.24382 1.80773 6.69238 1.82943C6.14095 1.85113 5.67155 1.89453 5.28418 1.95964C4.89681 2.02474 4.57096 2.10503 4.30664 2.20052C3.85091 2.37413 3.44987 2.62587 3.10352 2.95573C2.75716 3.28559 2.49284 3.66753 2.31055 4.10156C2.21029 4.3533 2.12598 4.66363 2.05762 5.03255C1.98926 5.40148 1.94369 5.84852 1.9209 6.3737C1.89811 6.89887 1.88444 7.31771 1.87988 7.63021C1.87533 7.94271 1.87533 8.4006 1.87988 9.00391C1.88444 9.60721 1.88672 9.93924 1.88672 10C1.88672 10.0608 1.88444 10.3928 1.87988 10.9961C1.87533 11.5994 1.87533 12.0573 1.87988 12.3698C1.88444 12.6823 1.89811 13.1011 1.9209 13.6263C1.94369 14.1515 1.98926 14.5985 2.05762 14.9674C2.12598 15.3364 2.21029 15.6467 2.31055 15.8984C2.49284 16.3325 2.75716 16.7144 3.10352 17.0443C3.44987 17.3741 3.85091 17.6259 4.30664 17.7995C4.57096 17.895 4.89681 17.9753 5.28418 18.0404C5.67155 18.1055 6.14095 18.1489 6.69238 18.1706C7.24382 18.1923 7.68359 18.2053 8.01172 18.2096C8.33985 18.214 8.82063 18.214 9.4541 18.2096C10.0876 18.2053 10.4362 18.2031 10.5 18.2031C10.5638 18.2031 10.9124 18.2053 11.5459 18.2096C12.1794 18.214 12.6602 18.214 12.9883 18.2096C13.3164 18.2053 13.7562 18.1923 14.3076 18.1706C14.8591 18.1489 15.3284 18.1055 15.7158 18.0404C16.1032 17.9753 16.429 17.895 16.6934 17.7995C17.1491 17.6259 17.5501 17.3741 17.8965 17.0443C18.2428 16.7144 18.5072 16.3325 18.6895 15.8984C18.7897 15.6467 18.874 15.3364 18.9424 14.9674C19.0107 14.5985 19.0563 14.1515 19.0791 13.6263C19.1019 13.1011 19.1156 12.6823 19.1201 12.3698C19.1247 12.0573 19.1247 11.5994 19.1201 10.9961C19.1156 10.3928 19.1133 10.0608 19.1133 10C19.1133 9.93924 19.1156 9.60721 19.1201 9.00391C19.1247 8.4006 19.1247 7.94271 19.1201 7.63021C19.1156 7.31771 19.1019 6.89887 19.0791 6.3737C19.0563 5.84852 19.0107 5.40148 18.9424 5.03255C18.874 4.66363 18.7897 4.3533 18.6895 4.10156C18.5072 3.66753 18.2428 3.28559 17.8965 2.95573C17.5501 2.62587 17.1491 2.37413 16.6934 2.20052C16.429 2.10503 16.1032 2.02474 15.7158 1.95964C15.3284 1.89453 14.8591 1.85113 14.3076 1.82943C13.7562 1.80773 13.3164 1.7947 12.9883 1.79036C12.6602 1.78602 12.1771 1.78819 11.5391 1.79688ZM20.9316 5.8724C20.9772 6.63629 21 8.01214 21 10C21 11.9879 20.9772 13.3637 20.9316 14.1276C20.8405 15.9332 20.2754 17.3307 19.2363 18.3203C18.1973 19.3099 16.7298 19.8481 14.834 19.9349C14.0319 19.9783 12.5872 20 10.5 20C8.41275 20 6.9681 19.9783 6.16602 19.9349C4.27017 19.8481 2.80274 19.3099 1.76367 18.3203C0.724604 17.3307 0.159506 15.9332 0.0683594 14.1276C0.0227862 13.3637 0 11.9879 0 10C0 8.01214 0.0227862 6.63629 0.0683594 5.8724C0.159506 4.06683 0.724604 2.66928 1.76367 1.67969C2.80274 0.690099 4.27017 0.15191 6.16602 0.0651042C6.9681 0.0217012 8.41275 0 10.5 0C12.5872 0 14.0319 0.0217012 14.834 0.0651042C16.7298 0.15191 18.1973 0.690099 19.2363 1.67969C20.2754 2.66928 20.8405 4.06683 20.9316 5.8724Z" fill="black"/>
</svg>
