<svg width="21" height="20" viewBox="0 0 21 20" fill="none" xmlns="http://www.w3.org/2000/svg">
<path fill-rule="evenodd" clip-rule="evenodd" d="M15.4082 14.0885C15.4082 13.8108 15.2715 13.5894 14.998 13.4245C13.2389 12.4262 11.2018 11.9271 8.88672 11.9271C7.67447 11.9271 6.36654 12.0747 4.96289 12.3698C4.58008 12.4479 4.38867 12.6736 4.38867 13.0469C4.38867 13.2205 4.45019 13.3702 4.57324 13.4961C4.69629 13.622 4.85807 13.6849 5.05859 13.6849C5.10417 13.6849 5.27279 13.6502 5.56445 13.5807C6.76758 13.3464 7.875 13.2292 8.88672 13.2292C10.9466 13.2292 12.7559 13.6762 14.3145 14.5703C14.4876 14.6658 14.638 14.7135 14.7656 14.7135C14.9388 14.7135 15.0892 14.6549 15.2168 14.5378C15.3444 14.4206 15.4082 14.2708 15.4082 14.0885ZM16.7207 11.2891C16.7207 10.9418 16.5612 10.6771 16.2422 10.4948C14.082 9.27083 11.5847 8.65885 8.75 8.65885C7.35546 8.65885 5.97462 8.84114 4.60742 9.20573C4.16992 9.31858 3.95117 9.59635 3.95117 10.0391C3.95117 10.2561 4.03092 10.4405 4.19043 10.5924C4.34994 10.7444 4.54362 10.8203 4.77148 10.8203C4.83529 10.8203 5.0039 10.7856 5.27734 10.7161C6.38933 10.4297 7.5332 10.2865 8.70898 10.2865C11.252 10.2865 13.4759 10.8246 15.3809 11.901C15.5996 12.0139 15.7728 12.0703 15.9004 12.0703C16.1283 12.0703 16.3219 11.9944 16.4814 11.8424C16.641 11.6905 16.7207 11.5061 16.7207 11.2891ZM18.1973 8.0599C18.1973 7.65191 18.015 7.34809 17.6504 7.14844C16.5019 6.51475 15.1667 6.03516 13.6445 5.70964C12.1224 5.38411 10.5593 5.22135 8.95508 5.22135C7.09569 5.22135 5.43686 5.42534 3.97852 5.83333C3.76888 5.8941 3.59343 6.00477 3.45215 6.16536C3.31087 6.32596 3.24023 6.53646 3.24023 6.79688C3.24023 7.06597 3.33366 7.29167 3.52051 7.47396C3.70736 7.65625 3.94206 7.7474 4.22461 7.7474C4.32487 7.7474 4.50716 7.71267 4.77148 7.64323C5.98373 7.32205 7.3828 7.16146 8.96875 7.16146C10.418 7.16146 11.8284 7.30903 13.2002 7.60417C14.5719 7.89931 15.7272 8.31163 16.666 8.84115C16.8574 8.94531 17.0397 8.9974 17.2129 8.9974C17.4772 8.9974 17.7074 8.90842 17.9033 8.73047C18.0993 8.55252 18.1973 8.32899 18.1973 8.0599ZM19.5918 4.98698C20.5306 6.51476 21 8.18575 21 10C21 11.8142 20.5306 13.4874 19.5918 15.0195C18.653 16.5517 17.3792 17.7648 15.7705 18.6589C14.1618 19.553 12.405 20 10.5 20C8.59504 20 6.83822 19.553 5.22949 18.6589C3.62076 17.7648 2.34701 16.5517 1.4082 15.0195C0.469396 13.4874 0 11.8142 0 10C0 8.18575 0.469396 6.51259 1.4082 4.98047C2.34701 3.44834 3.62076 2.23525 5.22949 1.34115C6.83822 0.447044 8.59504 0 10.5 0C12.405 0 14.1618 0.447044 15.7705 1.34115C17.3792 2.23525 18.653 3.45051 19.5918 4.98698Z" fill="black"/>
</svg>
