<svg width="25" height="19" viewBox="0 0 25 19" fill="none" xmlns="http://www.w3.org/2000/svg">
<path fill-rule="evenodd" clip-rule="evenodd" d="M25 2.25625C24.2915 3.22605 23.4349 4.05234 22.4302 4.73516C22.4408 4.8737 22.4461 5.08151 22.4461 5.35859C22.4461 6.64506 22.2451 7.92903 21.8433 9.21055C21.4414 10.4921 20.8307 11.7216 20.0111 12.8992C19.1915 14.0768 18.216 15.1184 17.0844 16.0238C15.9528 16.9293 14.5886 17.6517 12.9918 18.191C11.3949 18.7303 9.68698 19 7.86802 19C5.0021 19 2.37945 18.2826 0 16.8477C0.370137 16.8872 0.78257 16.907 1.23731 16.907C3.61676 16.907 5.73709 16.2242 7.59835 14.8586C6.48794 14.8388 5.49387 14.5197 4.61612 13.9012C3.73836 13.2827 3.13558 12.4935 2.80774 11.5336C3.15673 11.5831 3.47927 11.6078 3.77538 11.6078C4.23012 11.6078 4.67957 11.5534 5.12373 11.4445C3.93929 11.2169 2.95844 10.6652 2.18115 9.78945C1.40387 8.91367 1.01523 7.89688 1.01523 6.73906V6.67969C1.73435 7.05573 2.50634 7.25859 3.33122 7.28828C2.63325 6.85286 2.07805 6.28386 1.66561 5.58125C1.25317 4.87864 1.04695 4.11667 1.04695 3.29531C1.04695 2.42447 1.27961 1.61797 1.74492 0.875781C3.02454 2.35027 4.58174 3.53033 6.41656 4.41602C8.25138 5.3017 10.2157 5.79401 12.3096 5.89297C12.225 5.51692 12.1827 5.15078 12.1827 4.79453C12.1827 3.46848 12.6824 2.3379 13.6818 1.40273C14.6812 0.467573 15.8894 0 17.3065 0C18.787 0 20.0349 0.504682 21.0501 1.51406C22.2028 1.30625 23.2868 0.920315 24.302 0.35625C23.9107 1.49428 23.1599 2.375 22.0495 2.99844C23.033 2.89948 24.0165 2.65209 25 2.25625Z" fill="black"/>
</svg>
